<?xml version="1.0" encoding="UTF-8"?> <svg xmlns="http://www.w3.org/2000/svg" width="518" height="37" viewBox="0 0 518 37" fill="none"> <path d="M11.2723 22.7995V14.3947H26.747V22.7995H11.2723ZM15.9691 0.60096C18.7048 0.60096 21.1933 1.04592 23.4346 1.93584C25.7088 2.7928 27.6699 4.0288 29.3179 5.64384C30.9659 7.25888 32.2349 9.17056 33.1248 11.3789C34.0477 13.5872 34.5091 16.0262 34.5091 18.696C34.5091 21.3658 34.0477 23.8048 33.1248 26.0131C32.2349 28.2214 30.9659 30.1331 29.3179 31.7482C27.6699 33.3632 25.7088 34.6157 23.4346 35.5056C21.1933 36.3626 18.7048 36.791 15.9691 36.791C12.5742 36.791 9.5584 36.1978 6.9216 35.0112C4.31776 33.7917 2.15888 32.0778 0.44496 29.8694L7.81152 23.2939C8.83328 24.5794 9.95392 25.5846 11.1734 26.3098C12.4259 27.0019 13.8267 27.348 15.3758 27.348C16.5294 27.348 17.5512 27.1502 18.4411 26.7547C19.364 26.3592 20.1386 25.7824 20.7648 25.0243C21.424 24.2662 21.9184 23.3598 22.248 22.3051C22.5776 21.2174 22.7424 20.0144 22.7424 18.696C22.7424 17.3776 22.5776 16.191 22.248 15.1363C21.9184 14.0486 21.424 13.1258 20.7648 12.3677C20.1386 11.6096 19.364 11.0328 18.4411 10.6373C17.5512 10.2418 16.5294 10.044 15.3758 10.044C13.8267 10.044 12.4259 10.4066 11.1734 11.1317C9.95392 11.8238 8.83328 12.8126 7.81152 14.0981L0.44496 7.52256C2.15888 5.28128 4.31776 3.56736 6.9216 2.3808C9.5584 1.19424 12.5742 0.60096 15.9691 0.60096ZM46.1716 36V7.91808L48.693 10.4395H36.0364V1.392H67.7768V10.4395H55.1202L57.6416 7.91808V36H46.1716ZM88.7425 36.791C85.9409 36.791 83.337 36.3461 80.931 35.4562C78.5578 34.5662 76.4978 33.3138 74.751 31.6987C73.0041 30.0507 71.6362 28.1226 70.6474 25.9142C69.6916 23.7059 69.2137 21.2998 69.2137 18.696C69.2137 16.0592 69.6916 13.6531 70.6474 11.4778C71.6362 9.26944 73.0041 7.35776 74.751 5.74272C76.4978 4.09472 78.5578 2.82576 80.931 1.93584C83.337 1.04592 85.9409 0.60096 88.7425 0.60096C91.577 0.60096 94.1809 1.04592 96.554 1.93584C98.9271 2.82576 100.987 4.09472 102.734 5.74272C104.481 7.35776 105.832 9.26944 106.788 11.4778C107.777 13.6531 108.271 16.0592 108.271 18.696C108.271 21.2998 107.777 23.7059 106.788 25.9142C105.832 28.1226 104.481 30.0507 102.734 31.6987C100.987 33.3138 98.9271 34.5662 96.554 35.4562C94.1809 36.3461 91.577 36.791 88.7425 36.791ZM88.7425 27.348C89.8302 27.348 90.8354 27.1502 91.7583 26.7547C92.7142 26.3592 93.5382 25.7989 94.2303 25.0738C94.9554 24.3157 95.5158 23.4093 95.9113 22.3546C96.3068 21.2669 96.5046 20.0474 96.5046 18.696C96.5046 17.3446 96.3068 16.1416 95.9113 15.0869C95.5158 13.9992 94.9554 13.0928 94.2303 12.3677C93.5382 11.6096 92.7142 11.0328 91.7583 10.6373C90.8354 10.2418 89.8302 10.044 88.7425 10.044C87.6548 10.044 86.633 10.2418 85.6772 10.6373C84.7543 11.0328 83.9303 11.6096 83.2052 12.3677C82.513 13.0928 81.9692 13.9992 81.5737 15.0869C81.1782 16.1416 80.9804 17.3446 80.9804 18.696C80.9804 20.0474 81.1782 21.2669 81.5737 22.3546C81.9692 23.4093 82.513 24.3157 83.2052 25.0738C83.9303 25.7989 84.7543 26.3592 85.6772 26.7547C86.633 27.1502 87.6548 27.348 88.7425 27.348ZM139.95 36.791C137.049 36.791 134.247 36.4614 131.545 35.8022C128.842 35.143 126.617 34.2861 124.87 33.2314L128.628 24.7277C130.276 25.6835 132.105 26.4581 134.116 27.0514C136.159 27.6117 138.137 27.8918 140.048 27.8918C141.169 27.8918 142.043 27.8259 142.669 27.6941C143.328 27.5293 143.806 27.315 144.103 27.0514C144.399 26.7547 144.547 26.4086 144.547 26.0131C144.547 25.3869 144.201 24.8925 143.509 24.5299C142.817 24.1674 141.894 23.8707 140.741 23.64C139.62 23.3763 138.384 23.1126 137.033 22.849C135.681 22.5523 134.313 22.1733 132.929 21.7118C131.578 21.2504 130.325 20.6406 129.172 19.8826C128.051 19.1245 127.145 18.1357 126.452 16.9162C125.76 15.6637 125.414 14.1146 125.414 12.2688C125.414 10.1264 126.007 8.18176 127.194 6.43488C128.414 4.65504 130.21 3.23776 132.583 2.18304C134.989 1.12832 137.972 0.60096 141.532 0.60096C143.872 0.60096 146.179 0.84816 148.453 1.34256C150.727 1.83696 152.771 2.59504 154.584 3.6168L151.074 12.071C149.36 11.2141 147.695 10.5714 146.08 10.1429C144.498 9.7144 142.949 9.50016 141.433 9.50016C140.312 9.50016 139.422 9.59904 138.763 9.7968C138.104 9.99456 137.626 10.2582 137.329 10.5878C137.066 10.9174 136.934 11.28 136.934 11.6755C136.934 12.2688 137.28 12.7467 137.972 13.1093C138.664 13.4389 139.571 13.719 140.691 13.9498C141.845 14.1805 143.097 14.4277 144.449 14.6914C145.833 14.955 147.201 15.3176 148.552 15.779C149.903 16.2405 151.139 16.8502 152.26 17.6083C153.414 18.3664 154.337 19.3552 155.029 20.5747C155.721 21.7942 156.067 23.3104 156.067 25.1232C156.067 27.2326 155.457 29.1773 154.238 30.9571C153.051 32.704 151.271 34.1213 148.898 35.209C146.525 36.2637 143.542 36.791 139.95 36.791ZM166.571 36V10.4395H156.436V1.392H188.374V10.4395H178.239V36H166.571ZM185.909 36L201.038 1.392H212.508L227.636 36H215.573L204.4 6.92928H208.948L197.775 36H185.909ZM194.907 29.9683L197.874 21.5635H213.793L216.76 29.9683H194.907ZM229.499 36V1.392H246.16C249.39 1.392 252.175 1.91936 254.515 2.97408C256.888 4.0288 258.718 5.54496 260.003 7.52256C261.288 9.4672 261.931 11.7744 261.931 14.4442C261.931 17.1139 261.288 19.4211 260.003 21.3658C258.718 23.2774 256.888 24.7442 254.515 25.7659C252.175 26.7877 249.39 27.2986 246.16 27.2986H235.975L241.166 22.5029V36H229.499ZM250.214 36L241.71 23.3928H254.07L262.673 36H250.214ZM241.166 23.7883L235.975 18.4982H245.418C247.033 18.4982 248.22 18.1357 248.978 17.4106C249.769 16.6854 250.164 15.6966 250.164 14.4442C250.164 13.1917 249.769 12.2029 248.978 11.4778C248.22 10.7526 247.033 10.3901 245.418 10.3901H235.975L241.166 5.1V23.7883ZM279.241 36.791C276.34 36.791 273.539 36.4614 270.836 35.8022C268.133 35.143 265.909 34.2861 264.162 33.2314L267.919 24.7277C269.567 25.6835 271.396 26.4581 273.407 27.0514C275.451 27.6117 277.428 27.8918 279.34 27.8918C280.46 27.8918 281.334 27.8259 281.96 27.6941C282.619 27.5293 283.097 27.315 283.394 27.0514C283.691 26.7547 283.839 26.4086 283.839 26.0131C283.839 25.3869 283.493 24.8925 282.801 24.5299C282.108 24.1674 281.186 23.8707 280.032 23.64C278.911 23.3763 277.675 23.1126 276.324 22.849C274.973 22.5523 273.605 22.1733 272.22 21.7118C270.869 21.2504 269.617 20.6406 268.463 19.8826C267.342 19.1245 266.436 18.1357 265.744 16.9162C265.052 15.6637 264.706 14.1146 264.706 12.2688C264.706 10.1264 265.299 8.18176 266.485 6.43488C267.705 4.65504 269.501 3.23776 271.874 2.18304C274.28 1.12832 277.263 0.60096 280.823 0.60096C283.163 0.60096 285.47 0.84816 287.745 1.34256C290.019 1.83696 292.062 2.59504 293.875 3.6168L290.365 12.071C288.651 11.2141 286.987 10.5714 285.372 10.1429C283.789 9.7144 282.24 9.50016 280.724 9.50016C279.604 9.50016 278.714 9.59904 278.054 9.7968C277.395 9.99456 276.917 10.2582 276.621 10.5878C276.357 10.9174 276.225 11.28 276.225 11.6755C276.225 12.2688 276.571 12.7467 277.263 13.1093C277.956 13.4389 278.862 13.719 279.983 13.9498C281.136 14.1805 282.389 14.4277 283.74 14.6914C285.124 14.955 286.492 15.3176 287.844 15.779C289.195 16.2405 290.431 16.8502 291.552 17.6083C292.705 18.3664 293.628 19.3552 294.32 20.5747C295.012 21.7942 295.358 23.3104 295.358 25.1232C295.358 27.2326 294.749 29.1773 293.529 30.9571C292.343 32.704 290.563 34.1213 288.19 35.209C285.816 36.2637 282.834 36.791 279.241 36.791ZM331.55 36.791C328.781 36.791 326.211 36.3626 323.837 35.5056C321.497 34.6157 319.454 33.3632 317.707 31.7482C315.993 30.1331 314.658 28.2214 313.702 26.0131C312.746 23.8048 312.268 21.3658 312.268 18.696C312.268 16.0262 312.746 13.5872 313.702 11.3789C314.658 9.17056 315.993 7.25888 317.707 5.64384C319.454 4.0288 321.497 2.7928 323.837 1.93584C326.211 1.04592 328.781 0.60096 331.55 0.60096C334.945 0.60096 337.944 1.19424 340.548 2.3808C343.185 3.56736 345.36 5.28128 347.074 7.52256L339.708 14.0981C338.686 12.8126 337.549 11.8238 336.296 11.1317C335.077 10.4066 333.692 10.044 332.143 10.044C330.924 10.044 329.82 10.2418 328.831 10.6373C327.842 11.0328 326.985 11.6096 326.26 12.3677C325.568 13.1258 325.024 14.0486 324.628 15.1363C324.233 16.191 324.035 17.3776 324.035 18.696C324.035 20.0144 324.233 21.2174 324.628 22.3051C325.024 23.3598 325.568 24.2662 326.26 25.0243C326.985 25.7824 327.842 26.3592 328.831 26.7547C329.82 27.1502 330.924 27.348 332.143 27.348C333.692 27.348 335.077 27.0019 336.296 26.3098C337.549 25.5846 338.686 24.5794 339.708 23.2939L347.074 29.8694C345.36 32.0778 343.185 33.7917 340.548 35.0112C337.944 36.1978 334.945 36.791 331.55 36.791ZM367.863 36.791C365.062 36.791 362.458 36.3461 360.052 35.4562C357.679 34.5662 355.619 33.3138 353.872 31.6987C352.125 30.0507 350.757 28.1226 349.768 25.9142C348.812 23.7059 348.335 21.2998 348.335 18.696C348.335 16.0592 348.812 13.6531 349.768 11.4778C350.757 9.26944 352.125 7.35776 353.872 5.74272C355.619 4.09472 357.679 2.82576 360.052 1.93584C362.458 1.04592 365.062 0.60096 367.863 0.60096C370.698 0.60096 373.302 1.04592 375.675 1.93584C378.048 2.82576 380.108 4.09472 381.855 5.74272C383.602 7.35776 384.953 9.26944 385.909 11.4778C386.898 13.6531 387.392 16.0592 387.392 18.696C387.392 21.2998 386.898 23.7059 385.909 25.9142C384.953 28.1226 383.602 30.0507 381.855 31.6987C380.108 33.3138 378.048 34.5662 375.675 35.4562C373.302 36.3461 370.698 36.791 367.863 36.791ZM367.863 27.348C368.951 27.348 369.956 27.1502 370.879 26.7547C371.835 26.3592 372.659 25.7989 373.351 25.0738C374.076 24.3157 374.637 23.4093 375.032 22.3546C375.428 21.2669 375.625 20.0474 375.625 18.696C375.625 17.3446 375.428 16.1416 375.032 15.0869C374.637 13.9992 374.076 13.0928 373.351 12.3677C372.659 11.6096 371.835 11.0328 370.879 10.6373C369.956 10.2418 368.951 10.044 367.863 10.044C366.776 10.044 365.754 10.2418 364.798 10.6373C363.875 11.0328 363.051 11.6096 362.326 12.3677C361.634 13.0928 361.09 13.9992 360.695 15.0869C360.299 16.1416 360.101 17.3446 360.101 18.696C360.101 20.0474 360.299 21.2669 360.695 22.3546C361.09 23.4093 361.634 24.3157 362.326 25.0738C363.051 25.7989 363.875 26.3592 364.798 26.7547C365.754 27.1502 366.776 27.348 367.863 27.348ZM402.504 16.1251H417.731V24.9254H402.504V16.1251ZM403.295 36H391.627V1.392H419.758V10.1923H403.295V36ZM434.321 16.1251H449.549V24.9254H434.321V16.1251ZM435.112 36H423.444V1.392H451.576V10.1923H435.112V36ZM465.941 14.2464H481.366V22.6512H465.941V14.2464ZM466.732 27.1997H484.036V36H455.262V1.392H483.393V10.1923H466.732V27.1997ZM499.206 14.2464H514.632V22.6512H499.206V14.2464ZM499.998 27.1997H517.302V36H488.527V1.392H516.659V10.1923H499.998V27.1997Z" fill="#573821"></path> </svg> 