<?xml version="1.0" encoding="UTF-8"?> <svg xmlns="http://www.w3.org/2000/svg" width="553" height="43" viewBox="0 0 553 43" fill="none"> <path d="M42.6667 36L35.2507 19.7837L45.0398 14.3453L56.065 36H42.6667ZM30.5539 23.4917V14.2958H42.0734V23.4917H30.5539ZM45.6826 19.932L34.9046 18.8443L43.4083 1.392H55.5706L45.6826 19.932ZM13.6949 36H0.29664L11.3712 14.3453L21.1603 19.7837L13.6949 36ZM33.9158 36H22.5446V1.392H33.9158V36ZM25.9066 23.4917H14.2882V14.2958H25.9066V23.4917ZM10.7285 19.932L0.79104 1.392H12.9533L21.3086 18.8443L10.7285 19.932ZM82.2013 31.056V10.4395H74.2415L74.1426 12.9115C74.0767 14.7243 73.9613 16.4218 73.7965 18.0038C73.6317 19.5859 73.401 21.0362 73.1044 22.3546C72.8407 23.673 72.4946 24.843 72.0661 25.8648C71.6377 26.8536 71.1103 27.6776 70.4841 28.3368L58.1735 26.9525C59.2612 26.9525 60.1511 26.5899 60.8433 25.8648C61.5684 25.1067 62.1452 24.0685 62.5737 22.7501C63.0021 21.3987 63.3153 19.8166 63.513 18.0038C63.7437 16.1581 63.9085 14.131 64.0074 11.9227L64.4029 1.392H93.6714V31.056H82.2013ZM57.1847 42.7733V26.9525H98.2199V42.7733H87.5409V36H67.8637V42.7733H57.1847ZM112.817 14.2464H128.243V22.6512H112.817V14.2464ZM113.608 27.1997H130.912V36H102.138V1.392H130.27V10.1923H113.608V27.1997ZM135.646 36V1.392H145.237L159.08 23.9861H154.037L167.485 1.392H177.076L177.175 36H166.546L166.447 17.4106H168.128L158.932 32.8853H153.79L144.199 17.4106H146.275V36H135.646ZM198.073 36V1.392H215.624C219.909 1.392 223.222 2.18304 225.562 3.76512C227.935 5.3472 229.122 7.572 229.122 10.4395C229.122 13.2411 228.034 15.4659 225.859 17.1139C223.683 18.729 220.75 19.5365 217.058 19.5365L218.047 16.8667C221.969 16.8667 225.051 17.6413 227.292 19.1904C229.534 20.7395 230.654 22.9973 230.654 25.9637C230.654 29.029 229.435 31.468 226.996 33.2808C224.557 35.0936 221.079 36 216.564 36H198.073ZM209.543 27.8424H216.02C216.976 27.8424 217.684 27.6117 218.146 27.1502C218.64 26.6558 218.887 25.9637 218.887 25.0738C218.887 24.1838 218.64 23.5246 218.146 23.0962C217.684 22.6347 216.976 22.404 216.02 22.404H209.543V27.8424ZM209.543 14.6914H214.487C215.476 14.6914 216.201 14.4771 216.663 14.0486C217.124 13.6202 217.355 12.9939 217.355 12.1699C217.355 11.313 217.124 10.6702 216.663 10.2418C216.201 9.78032 215.476 9.5496 214.487 9.5496H209.543V14.6914ZM231.898 36L247.027 1.392H258.497L273.626 36H261.562L250.389 6.92928H254.937L243.764 36H231.898ZM240.896 29.9683L243.863 21.5635H259.782L262.749 29.9683H240.896ZM293.74 36.791C290.971 36.791 288.401 36.3626 286.027 35.5056C283.687 34.6157 281.644 33.3632 279.897 31.7482C278.183 30.1331 276.848 28.2214 275.892 26.0131C274.936 23.8048 274.458 21.3658 274.458 18.696C274.458 16.0262 274.936 13.5872 275.892 11.3789C276.848 9.17056 278.183 7.25888 279.897 5.64384C281.644 4.0288 283.687 2.7928 286.027 1.93584C288.401 1.04592 290.971 0.60096 293.74 0.60096C297.135 0.60096 300.134 1.19424 302.738 2.3808C305.375 3.56736 307.55 5.28128 309.264 7.52256L301.898 14.0981C300.876 12.8126 299.739 11.8238 298.486 11.1317C297.267 10.4066 295.882 10.044 294.333 10.044C293.114 10.044 292.01 10.2418 291.021 10.6373C290.032 11.0328 289.175 11.6096 288.45 12.3677C287.758 13.1258 287.214 14.0486 286.818 15.1363C286.423 16.191 286.225 17.3776 286.225 18.696C286.225 20.0144 286.423 21.2174 286.818 22.3051C287.214 23.3598 287.758 24.2662 288.45 25.0243C289.175 25.7824 290.032 26.3592 291.021 26.7547C292.01 27.1502 293.114 27.348 294.333 27.348C295.882 27.348 297.267 27.0019 298.486 26.3098C299.739 25.5846 300.876 24.5794 301.898 23.2939L309.264 29.8694C307.55 32.0778 305.375 33.7917 302.738 35.0112C300.134 36.1978 297.135 36.791 293.74 36.791ZM327.612 36V1.392H345.163C349.448 1.392 352.76 2.18304 355.1 3.76512C357.474 5.3472 358.66 7.572 358.66 10.4395C358.66 13.2411 357.572 15.4659 355.397 17.1139C353.222 18.729 350.288 19.5365 346.597 19.5365L347.586 16.8667C351.508 16.8667 354.59 17.6413 356.831 19.1904C359.072 20.7395 360.193 22.9973 360.193 25.9637C360.193 29.029 358.973 31.468 356.534 33.2808C354.095 35.0936 350.618 36 346.102 36H327.612ZM339.082 27.8424H345.559C346.514 27.8424 347.223 27.6117 347.684 27.1502C348.179 26.6558 348.426 25.9637 348.426 25.0738C348.426 24.1838 348.179 23.5246 347.684 23.0962C347.223 22.6347 346.514 22.404 345.559 22.404H339.082V27.8424ZM339.082 14.6914H344.026C345.015 14.6914 345.74 14.4771 346.201 14.0486C346.663 13.6202 346.893 12.9939 346.893 12.1699C346.893 11.313 346.663 10.6702 346.201 10.2418C345.74 9.78032 345.015 9.5496 344.026 9.5496H339.082V14.6914ZM379.176 36V1.392H405.528V10.4395H388.125L390.646 7.91808V36H379.176ZM424.49 36.791C421.689 36.791 419.085 36.3461 416.679 35.4562C414.306 34.5662 412.246 33.3138 410.499 31.6987C408.752 30.0507 407.384 28.1226 406.395 25.9142C405.439 23.7059 404.961 21.2998 404.961 18.696C404.961 16.0592 405.439 13.6531 406.395 11.4778C407.384 9.26944 408.752 7.35776 410.499 5.74272C412.246 4.09472 414.306 2.82576 416.679 1.93584C419.085 1.04592 421.689 0.60096 424.49 0.60096C427.325 0.60096 429.929 1.04592 432.302 1.93584C434.675 2.82576 436.735 4.09472 438.482 5.74272C440.229 7.35776 441.58 9.26944 442.536 11.4778C443.525 13.6531 444.019 16.0592 444.019 18.696C444.019 21.2998 443.525 23.7059 442.536 25.9142C441.58 28.1226 440.229 30.0507 438.482 31.6987C436.735 33.3138 434.675 34.5662 432.302 35.4562C429.929 36.3461 427.325 36.791 424.49 36.791ZM424.49 27.348C425.578 27.348 426.583 27.1502 427.506 26.7547C428.462 26.3592 429.286 25.7989 429.978 25.0738C430.703 24.3157 431.264 23.4093 431.659 22.3546C432.055 21.2669 432.252 20.0474 432.252 18.696C432.252 17.3446 432.055 16.1416 431.659 15.0869C431.264 13.9992 430.703 13.0928 429.978 12.3677C429.286 11.6096 428.462 11.0328 427.506 10.6373C426.583 10.2418 425.578 10.044 424.49 10.044C423.403 10.044 422.381 10.2418 421.425 10.6373C420.502 11.0328 419.678 11.6096 418.953 12.3677C418.261 13.0928 417.717 13.9992 417.321 15.0869C416.926 16.1416 416.728 17.3446 416.728 18.696C416.728 20.0474 416.926 21.2669 417.321 22.3546C417.717 23.4093 418.261 24.3157 418.953 25.0738C419.678 25.7989 420.502 26.3592 421.425 26.7547C422.381 27.1502 423.403 27.348 424.49 27.348ZM465.621 36.791C462.853 36.791 460.282 36.3626 457.909 35.5056C455.568 34.6157 453.525 33.3632 451.778 31.7482C450.064 30.1331 448.729 28.2214 447.773 26.0131C446.818 23.8048 446.34 21.3658 446.34 18.696C446.34 16.0262 446.818 13.5872 447.773 11.3789C448.729 9.17056 450.064 7.25888 451.778 5.64384C453.525 4.0288 455.568 2.7928 457.909 1.93584C460.282 1.04592 462.853 0.60096 465.621 0.60096C469.016 0.60096 472.016 1.19424 474.619 2.3808C477.256 3.56736 479.432 5.28128 481.145 7.52256L473.779 14.0981C472.757 12.8126 471.62 11.8238 470.368 11.1317C469.148 10.4066 467.764 10.044 466.215 10.044C464.995 10.044 463.891 10.2418 462.902 10.6373C461.913 11.0328 461.056 11.6096 460.331 12.3677C459.639 13.1258 459.095 14.0486 458.7 15.1363C458.304 16.191 458.106 17.3776 458.106 18.696C458.106 20.0144 458.304 21.2174 458.7 22.3051C459.095 23.3598 459.639 24.2662 460.331 25.0243C461.056 25.7824 461.913 26.3592 462.902 26.7547C463.891 27.1502 464.995 27.348 466.215 27.348C467.764 27.348 469.148 27.0019 470.368 26.3098C471.62 25.5846 472.757 24.5794 473.779 23.2939L481.145 29.8694C479.432 32.0778 477.256 33.7917 474.619 35.0112C472.016 36.1978 469.016 36.791 465.621 36.791ZM492.29 36V7.91808L494.812 10.4395H482.155V1.392H513.896V10.4395H501.239L503.76 7.91808V36H492.29ZM517.743 36V1.392H529.213V19.3882L541.129 1.392H552.104V36H540.634V18.0533L528.769 36H517.743Z" fill="#F8F5F3"></path> </svg> 