<?xml version="1.0" encoding="UTF-8"?> <svg xmlns="http://www.w3.org/2000/svg" width="19" height="18" viewBox="0 0 19 18" fill="none"> <path d="M9.14006 1.487C5.77489 1.487 3.04688 4.15006 3.04688 7.43511C3.04688 12.0598 6.8932 12.0226 7.81479 14.7067L8.20323 15.8517C8.31214 16.168 8.62355 16.3747 8.96488 16.3573H9.3914C9.73274 16.3747 10.0441 16.168 10.1531 15.8517L10.5415 14.7067C11.425 12.0226 15.2332 12.0598 15.2332 7.43511C15.2332 4.15006 12.5052 1.487 9.14006 1.487ZM9.14006 9.66565C7.87812 9.66565 6.85512 8.667 6.85512 7.43511C6.85512 6.20321 7.87812 5.20457 9.14006 5.20457C10.402 5.20457 11.425 6.20321 11.425 7.43511C11.425 8.02668 11.1843 8.59403 10.7558 9.01234C10.3272 9.43065 9.74606 9.66565 9.14006 9.66565Z" fill="#42D5C0"></path> </svg> 