<?xml version="1.0" encoding="UTF-8"?> <svg xmlns="http://www.w3.org/2000/svg" width="87" height="87" viewBox="0 0 87 87" fill="none"> <path d="M43.2898 68.6297C57.2469 68.6297 68.5613 57.3153 68.5613 43.3583C68.5613 29.4013 57.2469 18.0869 43.2898 18.0869C29.3328 18.0869 18.0184 29.4013 18.0184 43.3583C18.0184 57.3153 29.3328 68.6297 43.2898 68.6297Z" fill="#F8F5F3"></path> <path d="M43.5002 2.65837C20.9433 2.65837 2.65908 20.9426 2.65908 43.4995C2.65908 66.0564 20.9433 84.3407 43.5002 84.3407C66.0633 84.3407 84.3476 66.0564 84.3476 43.4995C84.3414 20.9426 66.0572 2.65837 43.5002 2.65837ZM29.6 64.4982C29.6062 64.4982 29.6062 64.4982 29.6062 64.5044L29.6 64.4982ZM43.4075 18.1724C57.2953 18.1724 68.5614 29.4324 68.5614 43.3264C68.5614 57.2142 57.3015 68.4803 43.4075 68.4803C29.5196 68.4803 18.2535 57.2204 18.2535 43.3264C18.2535 29.4324 29.5135 18.1724 43.4075 18.1724Z" fill="#573821"></path> <path d="M43.5 0C19.4776 0 0 19.4776 0 43.5C0 67.5286 19.4776 87 43.5 87C67.5224 87 87 67.5224 87 43.5C87 19.4776 67.5224 0 43.5 0ZM43.5 85.72C20.1825 85.72 1.27996 66.8175 1.27996 43.5C1.27996 20.1825 20.1825 1.27996 43.5 1.27996C66.8175 1.27996 85.72 20.1825 85.72 43.5C85.72 66.8175 66.8175 85.72 43.5 85.72Z" fill="#573821"></path> <path d="M43.5 1.27996C20.1825 1.27996 1.27996 20.1825 1.27996 43.5C1.27996 66.8175 20.1825 85.72 43.5 85.72C66.8175 85.72 85.72 66.8175 85.72 43.5C85.72 20.1825 66.8175 1.27996 43.5 1.27996ZM43.5002 84.3407C20.9433 84.3407 2.65908 66.0564 2.65908 43.4995C2.65908 20.9426 20.9433 2.65837 43.5002 2.65837C66.0633 2.65837 84.3476 20.9426 84.3476 43.4995C84.3414 66.0564 66.0572 84.3407 43.5002 84.3407Z" fill="#F8F5F3"></path> <path d="M28.9752 69.7423C28.2146 69.3836 27.3489 69.6743 26.7492 70.1628C25.7598 71.1335 25.1167 72.463 25.5063 73.8728C25.6732 74.4478 26.2359 74.893 26.7924 75.1218C27.6024 75.4248 28.4001 75.1589 29.0308 74.6148C30.0016 73.6254 30.6941 72.2465 30.0944 70.8491C29.9521 70.3915 29.4389 69.8783 28.9752 69.7423Z" fill="#573821"></path> <path d="M43.3945 8.06837L42.3866 11.2528L44.3962 11.2281L43.3945 8.06837Z" fill="#573821"></path> <path d="M58.4084 12.1012C58.6063 11.5447 58.4331 10.9573 58.0807 10.778C57.4747 10.5368 56.8131 10.2771 56.2999 10.0669C56.0464 10.7532 55.8423 11.3097 55.5208 12.1816L57.3078 12.8865C57.7715 12.973 58.2229 12.5464 58.4084 12.1012Z" fill="#573821"></path> <path d="M43.8646 57.6848C43.71 57.691 43.5554 57.6972 43.4008 57.6972V57.691C43.1535 57.7034 42.9062 57.7034 42.665 57.6848C41.484 57.6168 40.3957 57.2025 39.3569 56.4482L38.8004 55.7804C38.8004 55.7804 38.8808 58.3526 39.4064 59.4409C40.538 60.2509 41.9107 60.7332 43.4008 60.758V60.7456C44.7303 60.6776 45.9546 60.2386 46.9934 59.5275C47.5437 58.0311 47.6797 56.51 47.7107 55.8051L47.1727 56.442C46.1339 57.2025 45.0456 57.6106 43.8646 57.6848Z" fill="#F8F5F3"></path> <path d="M27.5589 61.2413H27.5672L27.5589 61.2337V61.2413Z" fill="#F8F5F3"></path> <path d="M37.7928 52.4719L37.7865 52.4782C37.7865 52.4782 37.7865 52.4782 37.7865 52.4846C37.7992 52.4973 37.8119 52.5164 37.8183 52.5291C37.8437 52.5482 37.8437 52.5482 37.7928 52.4719Z" fill="#1D5960"></path> <path d="M29.6 64.4982L29.6081 64.5064C29.6081 64.5064 29.6082 64.4982 29.6 64.4982Z" fill="#F8F5F3"></path> <path d="M50.9382 65.9637C50.969 65.9514 50.9997 65.9452 51.0366 65.9328L50.9382 65.9637Z" fill="#1D5960"></path> <path d="M51.3463 65.6234C51.3525 65.6234 51.3525 65.6234 51.3587 65.6172C51.3463 65.5926 51.334 65.5617 51.3217 65.5309C51.334 65.5679 51.3402 65.5925 51.3463 65.6234Z" fill="#573821"></path> <path d="M35.6165 65.3973C35.6229 65.372 35.6292 65.3404 35.6418 65.3088C35.6292 65.3341 35.6165 65.3657 35.6039 65.3973C35.6102 65.391 35.6102 65.391 35.6165 65.3973Z" fill="#573821"></path> <path d="M57.4005 63.45C57.4198 63.4308 57.4455 63.4179 57.4712 63.3987C57.4712 63.3987 57.4711 63.3922 57.4647 63.3922L57.4005 63.45Z" fill="#1D5960"></path> <path d="M31.0031 63.7991L31.0167 63.8054C31.0099 63.8054 31.0031 63.8055 31.0031 63.7991Z" fill="#1D5960"></path> <path d="M30.4042 63.301C30.417 63.301 30.4299 63.2881 30.4428 63.2688C30.4428 63.2688 30.4363 63.256 30.4363 63.2495C30.4235 63.2624 30.417 63.2817 30.4042 63.301Z" fill="#573821"></path> <path d="M43.4021 19.5096C43.3957 19.5159 43.3894 19.5159 43.383 19.5223C43.3957 19.5223 43.4148 19.5223 43.4276 19.5223C43.4212 19.5159 43.4148 19.5096 43.4021 19.5096Z" fill="#F8F5F3"></path> <path d="M38.9798 26.8235L41.447 28.8022L40.5627 31.8196L43.3082 30.1254L46.0597 31.8196L45.1693 28.796L47.618 26.8235H44.483L43.3082 23.9049L42.1333 26.8235H38.9798Z" fill="#F8F5F3"></path> <path d="M37.8311 52.5302C37.8183 52.5174 37.8055 52.4983 37.7991 52.4855C37.7991 52.4919 37.8183 52.5174 37.8311 52.5302Z" fill="#573821"></path> <path d="M41.7064 13.6781L45.1135 13.6596L45.9482 15.7929L49.1017 16.2071L45.9235 5.81291L40.9521 5.74489L37.5203 16.3184L40.9768 15.8732L41.7064 13.6781ZM43.3945 8.06983L44.3962 11.2295L42.3866 11.2543L43.3945 8.06983Z" fill="#F8F5F3"></path> <path d="M54.6666 14.5182C55.0809 14.6851 55.4148 14.815 55.8229 14.9757C55.9589 16.2928 56.0641 17.0904 56.2372 18.5621L59.1929 20.4233C59.1187 18.8341 59.0383 16.9606 58.9702 15.5508C59.7122 15.4519 60.2811 15.2169 60.7696 14.8273C61.3199 14.3821 61.9259 13.3928 61.9692 12.422C61.9815 10.5546 60.6212 9.18809 59.1434 8.60686C57.5357 7.97615 55.625 7.22178 54.1843 6.65291C52.9847 9.49108 51.5811 13.1207 50.3321 16.1753L53.634 17.344L54.6666 14.5182ZM56.299 10.0723C56.8184 10.2764 57.4739 10.5423 58.0798 10.7834C58.4323 10.9627 58.6054 11.5501 58.4076 12.1066C58.2221 12.5518 57.7707 12.9785 57.3069 12.8981L55.5199 12.1932C55.8415 11.3152 56.0455 10.7587 56.299 10.0723Z" fill="#F8F5F3"></path> <path d="M29.2781 10.9956L32.2152 18.156L35.2265 16.8884L32.4687 9.67239L35.381 8.46663L34.336 6.09222L25.5989 9.72186L26.5017 12.1519L29.2781 10.9956Z" fill="#F8F5F3"></path> <path d="M18.5744 20.1203C19.4091 20.7448 20.3675 20.7015 21.2641 20.4295C22.4266 20.1018 23.6571 18.6054 24.5351 19.1371C25.0298 19.4772 24.8072 20.1018 24.5722 20.5222C23.7869 21.6414 22.2164 22.1546 20.9179 22.2845L22.0494 24.2817C23.3603 24.1581 24.5908 23.515 25.5739 22.7544C26.7797 21.66 27.9916 19.8915 27.6701 18.1973C27.4599 17.0843 26.7797 16.3794 25.778 15.9032C24.5908 15.39 23.1995 16.0207 22.2411 16.6762C21.6351 17.0843 20.8066 17.7583 20.0584 17.276C19.7739 17.0719 19.8049 16.6885 19.8667 16.4721C20.3675 15.0932 21.6784 14.3698 23.082 14.1595C22.7667 13.5041 22.4575 12.8301 22.1731 12.218C21.3383 12.3787 20.584 12.7683 19.8914 13.1888C18.7104 13.9617 17.0904 15.8043 17.2326 17.7459C17.3439 18.6858 17.7643 19.6071 18.5744 20.1203Z" fill="#F8F5F3"></path> <path d="M61.9693 23.3667C63.0637 24.5725 64.8322 25.7844 66.5264 25.4629C67.6394 25.2527 68.3443 24.5725 68.8204 23.5708C69.3336 22.3836 68.7029 20.9923 68.0475 20.0339C67.6394 19.4279 66.9654 18.5994 67.4477 17.8512C67.6518 17.5667 68.0351 17.5977 68.2516 17.6595C69.6305 18.1603 70.3539 19.4712 70.5641 20.8748C71.2196 20.5595 71.8936 20.2503 72.5057 19.9659C72.345 19.1311 71.9554 18.3768 71.5349 17.6842C70.762 16.5032 68.9256 14.8832 66.9778 15.0254C66.0441 15.149 65.1228 15.5695 64.6034 16.3795C63.9789 17.2143 64.0221 18.1727 64.2942 19.0693C64.6219 20.2318 66.1183 21.4623 65.5865 22.3341C65.2465 22.8288 64.6219 22.6062 64.2014 22.3712C63.0823 21.5859 62.5691 20.0154 62.4392 18.7169L60.442 19.8484C60.5656 21.1531 61.2087 22.3836 61.9693 23.3667Z" fill="#F8F5F3"></path> <path d="M79.8879 50.3406H76.7529L75.5781 47.422L74.4032 50.3406H71.2497L73.7169 52.3131L72.8327 55.3305L75.5781 53.6425L78.3297 55.3305L77.4455 52.3131L79.8879 50.3406Z" fill="#F8F5F3"></path> <path d="M12.4642 50.3406L11.2893 47.422L10.1207 50.3406H6.96097L9.43432 52.313L8.5501 55.3305L11.2893 53.6425L14.0471 55.3305L13.1567 52.313L15.6053 50.3406H12.4642Z" fill="#F8F5F3"></path> <path d="M17.9441 67.8328C17.7648 66.9671 17.9441 65.9716 18.5253 65.2915C19.2302 64.4382 20.2752 63.9868 21.2275 64.2279C22.3776 64.5309 23.404 65.6686 23.5586 66.8373C24.2079 66.5219 24.9499 66.1509 25.5435 65.8541C25.3641 65.1183 25.0983 64.6731 24.8324 64.1723C24.0162 62.917 22.829 61.8659 21.3882 61.5196C19.3725 61.0929 17.2887 61.5567 15.9778 63.2138C14.8957 64.6113 14.5989 66.7878 15.2852 68.4697C16.0829 70.5411 18.2409 71.7902 20.3804 71.8644C20.7143 71.2089 20.9492 70.7328 21.3388 69.9537L20.9678 69.9413C19.6569 69.9042 18.2038 68.8345 17.9441 67.8328Z" fill="#F8F5F3"></path> <path d="M32.3201 69.5764C31.2256 67.9378 29.2779 66.9608 27.1755 67.0845C25.1412 67.3318 23.1625 68.8159 22.6184 70.8502C22.0001 72.7237 22.6679 74.6468 23.886 75.9947C25.2649 77.318 27.0704 77.9363 28.9749 77.6395C30.5517 77.2871 31.9862 76.2668 32.7406 74.6653C33.4146 73.0947 33.396 70.9615 32.3201 69.5764ZM29.0306 74.622C28.3998 75.1662 27.6022 75.4321 26.7922 75.1291C26.2357 74.9065 25.6668 74.4613 25.506 73.88C25.1165 72.464 25.7657 71.1408 26.7489 70.17C27.3487 69.6753 28.2144 69.3909 28.9749 69.7495C29.4387 69.8856 29.9519 70.405 30.0879 70.8625C30.6939 72.2538 30.0013 73.6265 29.0306 74.622Z" fill="#F8F5F3"></path> <path d="M50.8025 70.6207C48.5146 70.9917 46.0042 71.3194 43.6112 71.5482L44.2605 81.5219C45.3426 81.4539 46.4123 81.3921 47.4696 81.3055C47.3769 80.174 47.2841 78.8693 47.2161 77.849C48.4837 77.6697 49.9244 77.4595 51.1611 77.2801L50.7839 74.9428C49.5473 75.1221 48.36 75.2953 47.0306 75.4808C46.9873 74.9243 46.944 74.3801 46.8946 73.7185C48.3106 73.4897 49.7204 73.3104 51.2106 73.1002C51.0498 72.1356 50.9261 71.375 50.8025 70.6207Z" fill="#F8F5F3"></path> <path d="M57.8325 75.9633C57.4615 75.1224 57.3131 74.7637 57.0843 74.2381C58.2283 73.7064 59.3784 73.2117 60.479 72.6923C60.1822 72.0369 59.8916 71.3752 59.6319 70.8064C58.4385 71.3629 57.443 71.8142 56.2558 72.3522L55.588 70.7816L59.4155 68.9142C59.4155 68.9142 58.859 67.659 58.5931 67.1025C56.4227 68.2464 54.2956 69.2729 52.014 70.2622L55.5942 79.3765C57.8696 78.3748 60.4914 77.1814 62.8967 76.0684L61.9939 74.0279L57.8325 75.9633Z" fill="#F8F5F3"></path> <path d="M33.0132 80.0144C34.1138 80.2927 35.1155 80.5524 36.1296 80.7997C36.4079 79.6867 36.6614 78.4995 36.9149 77.4916C38.2382 77.7266 39.5799 77.9368 40.8413 78.147L41.1876 75.8715C39.8211 75.6366 38.7637 75.4634 37.4529 75.2285C37.5827 74.7091 37.7187 73.9609 37.8857 73.2807C39.3079 73.4909 40.7115 73.7568 42.1893 74.0042C42.2883 73.1261 42.3934 72.2728 42.4799 71.5184C40.1859 71.1784 37.7744 70.7332 35.4309 70.22L33.0132 80.0144Z" fill="#F8F5F3"></path> <path d="M66.6688 70.4359C66.0813 69.731 65.8402 69.428 65.4754 68.989C66.4276 68.1604 67.3984 67.3689 68.3135 66.5713C67.8498 66.021 67.386 65.4645 66.9841 64.9883C65.9886 65.8478 65.1538 66.5589 64.1707 67.3999L63.0948 66.0766L66.2607 63.2261C66.2607 63.2261 65.3826 62.1749 64.9683 61.7112C63.1999 63.4054 61.4129 64.976 59.4961 66.5527L65.4692 74.3376C67.3799 72.7423 69.5688 70.8749 71.5784 69.1436L70.15 67.4308L66.6688 70.4359Z" fill="#F8F5F3"></path> <path d="M24.0546 29.4444C24.0482 29.4444 24.0482 29.4444 24.0546 29.4444C24.0418 29.4508 24.0354 29.4508 24.029 29.4572C24.0482 29.4572 24.061 29.4572 24.0802 29.4572C24.0674 29.4572 24.061 29.4508 24.0546 29.4444Z" fill="#F8F5F3"></path> <path d="M51.7424 40.7608C51.0993 38.8934 49.9739 37.3909 48.292 36.3644C45.9547 34.9484 43.4628 34.2126 40.6989 34.9175C35.4368 36.2655 33.4025 41.0329 33.5385 44.3657C33.5633 45.0273 33.6684 45.6766 33.7426 46.332C33.959 48.4467 34.4227 50.512 35.0287 52.5463C35.4554 53.987 35.9995 55.3845 36.488 56.8066C36.9394 58.1113 37.2114 59.4778 37.2547 60.8691C37.2795 61.6173 37.162 62.3222 36.6982 62.9405C36.5189 63.1693 36.3952 63.4414 36.2468 63.7011C35.981 64.171 35.7584 64.6657 35.5296 65.1604C35.4059 65.4262 35.3997 65.4572 35.6656 65.5499C37.4711 66.1744 39.3262 66.564 41.2306 66.7247C42.727 66.8546 44.2234 66.8546 45.7198 66.7C47.3831 66.5269 49.0093 66.1683 50.6046 65.655C50.7716 65.5994 50.753 65.5437 50.7036 65.4139C50.6046 65.1542 50.4933 64.9007 50.3758 64.6471C50.2027 64.27 50.011 63.899 49.8008 63.5341C49.6029 63.1817 49.3494 62.8478 49.2072 62.4644C49.1082 62.1862 49.065 61.8708 49.0155 61.5802C48.8856 60.7207 48.9104 59.8488 49.0959 59.0017C49.2443 58.3154 49.3556 57.6043 49.6029 56.955C50.0048 55.8915 50.4129 54.828 50.753 53.7459C51.662 50.8582 52.2556 47.9211 52.3421 44.4523C52.3978 43.4753 52.1999 42.1026 51.7424 40.7608ZM36.0552 43.197C36.0861 43.1105 36.1603 43.0672 36.2283 43.0177C36.7601 42.6529 37.3598 42.5292 38.0462 42.5169C38.8439 42.554 39.6477 42.7333 40.3712 43.2032C40.8102 43.4877 40.8906 43.9081 40.6185 44.3472C40.5443 44.4708 40.4639 44.5141 40.3217 44.4708C39.8517 44.3286 39.3756 44.2297 38.8871 44.1864C38.0277 44.1122 37.2053 44.2049 36.4694 44.7058C36.3581 44.78 36.2901 44.7552 36.2035 44.681C36.018 44.5203 35.9439 44.3101 35.9191 44.0875C35.8882 43.7783 35.9562 43.4877 36.0552 43.197ZM47.1667 58.0062C47.0739 58.4329 46.9626 58.8471 46.8204 59.2552C46.7771 59.3727 46.7153 59.4593 46.6164 59.5211C45.6394 60.1518 44.5758 60.5352 43.4134 60.6032C41.9232 60.696 40.5938 60.2384 39.3633 59.416C39.2581 59.348 39.2087 59.2553 39.1654 59.144C38.9304 58.5009 38.8377 57.8207 38.7573 57.1467C38.7078 56.7077 38.6831 56.2687 38.646 55.7864C39.8208 57.1282 41.3048 57.5919 42.9743 57.629C44.378 57.6599 45.6518 57.2889 46.808 56.4851C47.0677 56.3058 47.21 56.0214 47.4635 55.8049C47.4202 56.5655 47.3274 57.2889 47.1667 58.0062ZM49.7637 41.3544C49.1825 41.4657 48.6012 41.3791 48.02 41.3544C47.21 41.3235 46.4123 41.4224 45.627 41.6203C44.4089 41.9356 43.7658 42.7147 43.6483 43.9638C43.5679 44.7676 43.6607 45.5529 43.8153 46.3444C43.8524 46.5422 43.9451 46.7092 44.0441 46.87C44.1801 47.0864 44.4213 46.9998 44.6253 46.9874C44.7799 46.9751 44.8603 46.9009 44.8726 46.7216C44.8974 46.4124 45.0952 46.1774 45.2869 45.961C45.4662 45.7508 45.7074 45.7755 45.8991 45.9734C46.2825 46.3629 46.7586 46.3877 47.2594 46.3258C47.6861 46.2702 48.0818 46.0847 48.5023 46.0105C49.3927 45.8373 49.6957 46.097 49.739 47.0122C49.7575 47.4388 49.6091 47.8346 49.4854 48.2303C48.8856 50.1039 48.0942 51.8785 46.9626 53.4985C46.1712 54.6363 45.1262 55.3906 43.7535 55.6132C42.1767 55.8729 40.7607 55.4896 39.5117 54.4693C38.3925 53.5542 37.6814 52.3608 37.162 51.0375C36.624 49.6834 36.2963 48.2736 36.0923 46.8329C36.0552 46.5917 36.0366 46.3753 36.2035 46.1774C36.3458 46.0105 36.5375 45.9177 36.7415 46.0167C37.6381 46.4619 38.5656 46.4495 39.5117 46.2393C39.8023 46.1713 40.1053 46.1218 40.4144 46.1898C40.7483 46.2702 40.9153 46.4742 40.9091 46.8205C40.9029 47.0555 41.0699 47.2471 41.3234 47.2904C41.5831 47.3275 41.849 47.2039 41.9108 46.9936C42.0839 46.431 42.0901 45.8559 42.0468 45.2808C41.9788 44.3904 41.781 43.5248 41.546 42.6653C41.5151 42.5478 41.447 42.455 41.3667 42.3685C40.7298 41.6698 39.895 41.4162 38.9861 41.3606C38.6769 41.342 38.3677 41.3606 38.0957 41.3606C37.6381 41.3235 37.2176 41.4101 36.8095 41.3111C36.7539 41.2926 36.7044 41.2802 36.6488 41.2678C35.9253 41.0638 35.7707 40.6866 36.1726 40.0497C37.1496 38.4977 38.4976 37.4032 40.2475 36.8653C42.5168 36.1666 44.7428 36.2717 46.8451 37.4527C48.2117 38.2194 49.2381 39.3324 49.9925 40.7052C50.0234 40.767 50.0667 40.8288 50.079 40.8906C50.1409 41.1936 50.0729 41.2926 49.7637 41.3544ZM49.8688 43.8896C49.8688 44.1864 49.8317 44.477 49.5782 44.6872C49.4916 44.7614 49.4236 44.78 49.3123 44.7058C48.6012 44.2111 47.7974 44.1184 46.9564 44.1802C46.4494 44.2173 45.9485 44.3286 45.4601 44.477C45.324 44.5203 45.2498 44.4708 45.1756 44.3595C44.8912 43.9143 44.9654 43.4938 45.423 43.197C46.1464 42.7333 46.9564 42.5478 47.7232 42.5231C48.292 42.5292 48.7558 42.6282 49.2134 42.8075C49.7142 43.0115 49.875 43.3949 49.8688 43.8896Z" fill="#573821"></path> <path d="M49.8688 43.8896C49.8688 44.1864 49.8317 44.477 49.5782 44.6872C49.4916 44.7614 49.4236 44.78 49.3123 44.7058C48.6012 44.2111 47.7974 44.1184 46.9564 44.1802C46.4494 44.2173 45.9485 44.3286 45.4601 44.477C45.324 44.5203 45.2498 44.4708 45.1756 44.3595C44.8912 43.9143 44.9654 43.4938 45.423 43.197C46.1464 42.7333 46.9564 42.5478 47.7232 42.5231C48.292 42.5292 48.7558 42.6282 49.2134 42.8075C49.7142 43.0115 49.875 43.3949 49.8688 43.8896Z" fill="#F8F5F3"></path> <path d="M40.6185 44.3472C40.5443 44.4708 40.4639 44.5141 40.3217 44.4708C39.8517 44.3286 39.3756 44.2297 38.8871 44.1864C38.0277 44.1122 37.2053 44.2049 36.4694 44.7058C36.3581 44.78 36.2901 44.7552 36.2035 44.681C36.018 44.5203 35.9439 44.3101 35.9191 44.0875C35.8882 43.7783 35.9562 43.4877 36.0552 43.197C36.0861 43.1105 36.1603 43.0672 36.2283 43.0177C36.7601 42.6529 37.3598 42.5292 38.0462 42.5169C38.8439 42.554 39.6477 42.7333 40.3712 43.2032C40.8102 43.4877 40.8906 43.9081 40.6185 44.3472Z" fill="#F8F5F3"></path> <path d="M50.079 40.8906C50.0667 40.8288 50.0234 40.767 49.9925 40.7052C49.2381 39.3324 48.2117 38.2194 46.8451 37.4527C44.7428 36.2717 42.5168 36.1666 40.2475 36.8653C38.4976 37.4032 37.1496 38.4977 36.1726 40.0497C35.7707 40.6866 35.9253 41.0638 36.6488 41.2678C36.7044 41.2802 36.7539 41.2926 36.8095 41.3111C37.2176 41.4101 37.6381 41.3235 38.0957 41.3606C38.3677 41.3606 38.6769 41.342 38.9861 41.3606C39.895 41.4162 40.7298 41.6698 41.3667 42.3685C41.447 42.455 41.5151 42.5478 41.546 42.6653C41.781 43.5248 41.9788 44.3904 42.0468 45.2808C42.0901 45.8559 42.0839 46.431 41.9108 46.9936C41.849 47.2039 41.5831 47.3275 41.3234 47.2904C41.0699 47.2471 40.9029 47.0555 40.9091 46.8205C40.9153 46.4742 40.7483 46.2702 40.4144 46.1898C40.1053 46.1218 39.8023 46.1713 39.5117 46.2393C38.5656 46.4495 37.6381 46.4619 36.7415 46.0167C36.5375 45.9177 36.3458 46.0105 36.2035 46.1774C36.0366 46.3753 36.0552 46.5917 36.0923 46.8329C36.2963 48.2736 36.624 49.6834 37.162 51.0375C37.6814 52.3608 38.3925 53.5542 39.5117 54.4693C40.7607 55.4896 42.1767 55.8729 43.7535 55.6132C45.1262 55.3906 46.1712 54.6363 46.9626 53.4985C48.0942 51.8785 48.8856 50.1039 49.4854 48.2303C49.6091 47.8346 49.7575 47.4388 49.739 47.0122C49.6957 46.097 49.3927 45.8373 48.5023 46.0105C48.0818 46.0847 47.6861 46.2702 47.2594 46.3258C46.7586 46.3877 46.2825 46.3629 45.8991 45.9734C45.7074 45.7755 45.4662 45.7508 45.2869 45.961C45.0952 46.1774 44.8974 46.4124 44.8726 46.7216C44.8603 46.9009 44.7799 46.9751 44.6253 46.9874C44.4213 46.9998 44.1801 47.0864 44.0441 46.87C43.9451 46.7092 43.8524 46.5422 43.8153 46.3444C43.6607 45.5529 43.5679 44.7676 43.6483 43.9638C43.7658 42.7147 44.4089 41.9356 45.627 41.6203C46.4123 41.4224 47.21 41.3235 48.02 41.3544C48.6012 41.3791 49.1825 41.4657 49.7637 41.3544C50.0729 41.2926 50.1409 41.1936 50.079 40.8906ZM45.7566 51.0565C45.738 51.1802 45.6576 51.2544 45.5958 51.3471C45.3114 51.7738 44.9713 52.151 44.6065 52.5158C43.679 53.4185 41.8858 53.5298 41.0016 52.3117C40.9768 52.2746 40.9397 52.2437 40.9088 52.2066C40.7171 51.984 40.5069 51.78 40.2657 51.6068C40.2101 51.5697 40.1483 51.5264 40.105 51.4708C39.9875 51.3286 39.9133 51.1492 39.9813 50.9761C40.0432 50.8215 40.2163 50.9019 40.3399 50.9143C41.7065 51.0627 43.0854 50.9514 44.4581 50.9699C44.8909 50.9761 45.3237 50.9823 45.7566 51.0565ZM44.3035 48.6821C44.421 48.713 44.4766 48.7501 44.4519 48.8985C44.4024 49.2881 44.2231 49.5106 43.8459 49.5848C43.7594 49.6034 42.096 49.6034 41.9909 49.5787C41.6137 49.5045 41.3849 49.1953 41.3849 48.8181C41.3911 48.6759 41.5024 48.7006 41.5643 48.6821C42.0156 48.5708 42.4794 48.5151 42.9184 48.5213C43.4007 48.5151 43.8583 48.5708 44.3035 48.6821Z" fill="#F8F5F3"></path> <path d="M43.4692 19.8617C44.6935 19.8432 45.9054 19.9359 47.1112 20.1338C49.6464 20.5481 52.0455 21.3581 54.3086 22.57C58.2721 24.6909 61.3515 27.727 63.6022 31.6101C64.9069 33.867 65.7911 36.2847 66.292 38.8385C66.5146 39.9762 66.6383 41.1201 66.6939 42.2764C66.8485 45.6278 66.3167 48.8617 65.0924 51.9843C63.7383 55.4346 61.6854 58.4026 58.909 60.8698C58.8039 60.9626 58.7545 60.9749 58.6617 60.8574C58.3031 60.4184 57.895 60.0227 57.4498 59.6641C57.3261 59.5651 57.3076 59.4785 57.3385 59.3302C57.66 57.8956 58.1114 56.5043 58.5071 55.0945C58.94 53.5611 59.2924 52.009 59.2986 50.4076C59.3048 48.7257 58.9029 47.1365 58.0743 45.6649C57.9877 45.5103 57.9754 45.4238 58.1238 45.2815C59.0698 44.3479 59.4285 43.1978 59.2924 41.8869C59.1749 40.7182 58.7545 39.6423 58.2041 38.6221C58.1114 38.4489 58.099 38.3005 58.1732 38.1212C58.637 36.9216 58.8719 35.6788 58.8163 34.3864C58.7297 32.2779 57.827 30.627 56.0833 29.4336C55.0754 28.7472 53.95 28.3329 52.7813 28.0361C52.6329 27.999 52.5711 27.9557 52.5711 27.7826C52.5587 27.2261 52.2557 26.7809 51.9527 26.3542C51.3406 25.5009 50.58 24.796 49.7762 24.1282C47.8717 22.5453 45.7879 21.2282 43.6547 19.973C43.5867 19.9359 43.5248 19.8988 43.4692 19.8617Z" fill="#42D5C0"></path> <path d="M42.9436 19.867C42.585 20.0835 42.2325 20.2875 41.8863 20.4978C39.9323 21.685 38.0217 22.9278 36.2965 24.4366C35.4989 25.1353 34.7445 25.8711 34.1941 26.7924C33.9963 27.1201 33.8355 27.4664 33.8541 27.8621C33.8603 28.0044 33.7675 28.0044 33.6809 28.0291C32.9266 28.2146 32.1846 28.4557 31.4858 28.7896C29.8658 29.5626 28.5858 30.6818 27.9675 32.4193C27.5223 33.6745 27.4976 34.973 27.7325 36.2777C27.85 36.927 28.017 37.5639 28.2705 38.176C28.3323 38.3306 28.3076 38.4481 28.2334 38.5903C27.7387 39.5178 27.343 40.4824 27.176 41.5336C26.9411 43.0299 27.275 44.3408 28.4065 45.392C28.5055 45.4847 28.4869 45.5466 28.4313 45.6455C27.7078 46.944 27.2379 48.3353 26.9967 49.8007C26.7927 51.0498 26.9534 52.2741 27.2688 53.486C27.6151 54.8155 28.1406 56.0892 28.5673 57.3939C28.7652 58.0061 28.9259 58.6306 29.0496 59.2613C29.0805 59.4097 29.0434 59.5024 28.9259 59.6014C28.524 59.9353 28.1592 60.3063 27.8253 60.7082C27.714 60.8442 27.646 60.8442 27.5161 60.7268C25.5498 58.9336 23.9174 56.8683 22.6436 54.531C21.3575 52.1813 20.5042 49.6832 20.0837 47.0368C19.7931 45.1879 19.7189 43.3329 19.8673 41.4656C20.1084 38.3986 20.8875 35.4801 22.3097 32.7656C25.6673 26.341 30.8799 22.2291 37.9104 20.4545C39.314 20.102 40.7423 19.9165 42.1893 19.867C42.4242 19.8609 42.653 19.8485 42.888 19.8361C42.9003 19.8299 42.9127 19.8423 42.9436 19.867Z" fill="#42D5C0"></path> <path d="M55.323 49.2244C55.3168 50.7455 54.9025 52.2419 54.4017 53.7197C53.9379 55.0738 53.3938 56.4033 52.9671 57.7698C52.6951 58.6417 52.4415 59.5259 52.3859 60.441C52.3488 61.047 52.5034 61.622 52.726 62.1847C52.998 62.8773 53.4 63.4956 53.8266 64.0954C53.9317 64.2438 53.9008 64.2933 53.7524 64.3613C53.3196 64.553 52.8929 64.7508 52.4663 64.9487C52.3859 64.9858 52.3179 65.0353 52.2499 64.924C51.6995 64.0954 51.0379 63.3348 50.704 62.3702C50.2093 60.9542 50.333 59.563 50.8153 58.1779C51.1801 57.1267 51.681 56.1436 52.1695 55.148C52.7754 53.9052 53.3381 52.65 53.6535 51.2958C53.9565 50.0035 53.9998 48.6988 53.7833 47.3879C53.7524 47.1901 53.7771 47.0973 54.0059 47.0973C54.3213 47.1035 54.6428 47.0602 54.9396 46.9304C55.0818 46.8685 55.0633 46.9736 55.0757 47.0355C55.2426 47.7404 55.3354 48.4453 55.323 49.2244Z" fill="#573821"></path> <path d="M30.775 49.0396C30.7812 50.5607 31.1955 52.0571 31.6963 53.5349C32.1601 54.8891 32.7042 56.2185 33.1308 57.585C33.4029 58.4569 33.6564 59.3411 33.7121 60.2562C33.7492 60.8622 33.5946 61.4373 33.372 62C33.0999 62.6925 32.698 63.3108 32.2714 63.9106C32.1662 64.059 32.1972 64.1085 32.3456 64.1765C32.7784 64.3682 33.2051 64.566 33.6317 64.7639C33.7121 64.801 33.7801 64.8505 33.8481 64.7392C34.3984 63.9106 35.0601 63.1501 35.394 62.1854C35.8886 60.7695 35.765 59.3782 35.2827 57.9931C34.9178 56.9419 34.417 55.9588 33.9285 54.9633C33.3225 53.7204 32.7598 52.4652 32.4445 51.111C32.1415 49.8187 32.0982 48.514 32.3146 47.2032C32.3456 47.0053 32.3208 46.9125 32.092 46.9125C31.7767 46.9187 31.4552 46.8754 31.1584 46.7456C31.0161 46.6837 31.0347 46.7889 31.0223 46.8507C30.8616 47.5556 30.7688 48.2605 30.775 49.0396Z" fill="#573821"></path> <path d="M32.2275 60.4983C32.3017 61.4876 31.8132 62.4337 31.2258 63.3488C31.1763 63.4292 31.1269 63.4292 31.0589 63.3859C30.4034 62.984 29.7789 62.545 29.1606 62.0936C29.0554 62.0132 29.1235 61.9699 29.1729 61.9143C29.8222 61.1785 30.0262 60.2571 30.0448 59.3296C30.0572 58.7731 29.8222 58.1981 29.6429 57.6478C29.2657 56.4544 28.7896 55.2919 28.4371 54.0923C28.1898 53.2514 28.0043 52.3981 27.9301 51.52C27.8311 50.3019 28.0661 49.1456 28.4247 47.9955C28.6164 47.3896 28.8514 46.796 29.1111 46.2209C29.1791 46.0725 29.2348 46.0663 29.3584 46.1529C29.5749 46.3013 29.816 46.4188 30.0633 46.5115C30.1932 46.561 30.2179 46.6166 30.1685 46.7465C29.8531 47.6245 29.6738 48.5335 29.5501 49.461C29.3275 51.1552 29.5934 52.7815 30.2365 54.352C30.6755 55.4279 31.2196 56.4544 31.6401 57.5426C31.9987 58.4392 32.2213 59.3791 32.2275 60.4983Z" fill="#573821"></path> <path d="M57.1219 62.2657C56.6025 62.7109 56.0274 63.0571 55.4647 63.4096C55.3967 63.4529 55.3472 63.4962 55.2792 63.391C54.7907 62.6614 54.3517 61.9132 54.2219 61.0104C54.092 60.0891 54.2219 59.2049 54.4939 58.3269C54.8464 57.2138 55.3782 56.1812 55.8481 55.1177C56.689 53.2008 56.8993 51.1912 56.6705 49.126C56.5777 48.2974 56.4046 47.4874 56.1387 46.7021C56.0893 46.5599 56.1325 46.5228 56.25 46.4795C56.5901 46.3497 56.9116 46.1704 57.227 45.9787C57.3012 46.0467 57.3259 46.1456 57.3692 46.2322C58.1916 47.9944 58.4389 49.8433 58.2102 51.7725C58.0061 53.4605 57.5176 55.0744 57.0477 56.7006C56.8189 57.4859 56.5592 58.2712 56.417 59.0812C56.2624 59.9531 56.2686 60.8249 56.6519 61.6597C56.7632 61.8885 56.9178 62.0863 57.1219 62.2657Z" fill="#573821"></path> <path d="M45.8433 31.9312C45.0951 31.4675 44.3593 31.0532 43.6668 30.5771C43.271 30.305 42.9804 30.2803 42.5723 30.5709C41.886 31.0594 41.1439 31.4675 40.3834 31.9374C40.538 31.3933 40.6864 30.8924 40.8286 30.3916C40.9523 29.9587 41.0759 29.5321 41.212 29.1054C41.2552 28.9756 41.2243 28.8952 41.113 28.8148C40.4143 28.2645 39.7156 27.7018 39.0231 27.1453C38.9612 27.0958 38.9056 27.0464 38.8128 26.966C39.0107 26.966 39.1591 26.966 39.3137 26.966C40.1237 26.966 40.9275 26.9598 41.7376 26.9722C41.9045 26.9722 41.9725 26.9165 42.0344 26.7619C42.3868 25.8715 42.7454 24.9811 43.1165 24.0598C43.4627 24.9131 43.7904 25.7293 44.1243 26.5517C44.2913 26.966 44.2851 26.966 44.7179 26.966C45.596 26.966 46.474 26.966 47.3644 26.966C47.3459 27.0649 47.2593 27.0835 47.2098 27.1268C46.5235 27.6833 45.8371 28.2459 45.1446 28.7901C45.0086 28.8952 44.99 28.988 45.0395 29.1425C45.293 29.9773 45.5341 30.8182 45.7815 31.6592C45.8 31.7334 45.8124 31.8137 45.8433 31.9312Z" fill="#F8F5F3"></path> <path d="M38.6464 55.7851C39.8213 57.1269 41.3053 57.5906 42.9748 57.6277C44.3784 57.6586 45.6522 57.2876 46.8085 56.49C47.0682 56.3106 47.2104 56.0262 47.4701 55.8098C47.4268 56.5703 47.3341 57.2938 47.1733 58.0111C47.0805 58.4315 46.9631 58.852 46.8208 59.2601C46.7837 59.3776 46.7219 59.458 46.6168 59.526C45.6398 60.1505 44.5763 60.5339 43.4138 60.6081C41.9236 60.7008 40.5942 60.2371 39.3637 59.4209C39.2586 59.3529 39.2091 59.2601 39.1658 59.1488C38.9247 58.5057 38.8319 57.8256 38.7577 57.1516C38.7144 56.7064 38.6897 56.2674 38.6464 55.7851Z" fill="#F8F5F3"></path> <path d="M45.757 51.0541C45.7384 51.1778 45.6581 51.252 45.5962 51.3447C45.3118 51.7714 44.9717 52.1486 44.6069 52.5134C43.6794 53.4162 41.8862 53.5275 41.002 52.3093C40.9772 52.2722 40.9402 52.2413 40.9092 52.2042C40.7175 51.9816 40.5073 51.7776 40.2662 51.6044C40.2105 51.5673 40.1487 51.524 40.1054 51.4684C39.9879 51.3262 39.9137 51.1469 39.9817 50.9737C40.0436 50.8191 40.2167 50.8995 40.3404 50.9119C41.7069 51.0603 43.0858 50.949 44.4585 50.9675C44.8913 50.9737 45.3242 50.9799 45.757 51.0541Z" fill="#573821"></path> <path d="M44.4527 48.8995C44.4032 49.289 44.2239 49.5116 43.8467 49.5858C43.7601 49.6044 42.0968 49.6044 41.9917 49.5796C41.6145 49.5054 41.3857 49.1963 41.3857 48.8191C41.3919 48.6769 41.5032 48.7016 41.565 48.683C42.0164 48.5717 42.4802 48.5161 42.9192 48.5223C43.4015 48.5161 43.8591 48.5717 44.3043 48.683C44.4217 48.714 44.4774 48.7511 44.4527 48.8995Z" fill="#573821"></path> <path d="M57.524 41.2857C57.4869 40.451 57.2829 39.7089 56.6151 39.1524C56.2132 38.8124 56.1761 38.633 56.4049 38.1446C56.7635 37.3902 56.9985 36.6049 57.085 35.764C57.3076 33.575 56.1946 31.4542 54.2592 30.403C53.4987 29.9887 52.6763 29.7475 51.8353 29.5682C51.5447 29.5064 51.353 29.358 51.2603 29.0612C51.013 28.2512 50.5801 27.5339 50.0298 26.8908C49.4609 26.2168 48.8055 25.6356 48.1068 25.1038C46.5857 23.9352 44.9161 22.9829 43.2961 21.9689C43.1539 21.8823 43.0179 21.9008 42.8818 21.9874C42.5665 22.1853 42.2511 22.377 41.9358 22.5748C40.3714 23.5394 38.7946 24.4855 37.391 25.6851C36.3336 26.594 35.437 27.6205 34.9918 28.9684C34.862 29.3642 34.627 29.5497 34.2375 29.6115C33.7304 29.6919 33.242 29.8465 32.7658 30.0258C30.0142 31.0708 29.0496 33.3895 29.1115 35.4733C29.1362 36.4132 29.4206 37.2851 29.8102 38.1322C29.8844 38.293 29.971 38.4785 29.9524 38.6578C29.9339 38.8309 29.804 38.9608 29.6865 39.0721C29.3464 39.3812 29.0373 39.7337 28.8951 40.1851C28.7281 40.7168 28.6292 41.2795 28.6168 41.836C28.6168 41.8917 28.6168 41.9473 28.6168 42.003C28.6292 43.1036 28.9816 44.0435 29.9029 44.7113C30.7686 45.3358 31.7765 45.4966 32.8029 45.5893C32.8029 45.5893 32.7411 45.0143 32.7658 44.1239C32.7658 44.1115 32.7658 44.093 32.7658 44.0806C32.7658 43.8765 32.7782 43.6725 32.7968 43.4746C33.0441 40.1047 34.6456 33.8966 43.1354 33.8966C43.7599 33.8842 44.3782 33.9399 44.9904 34.0574C47.371 34.5211 49.3744 35.6588 50.945 37.5139C52.6021 39.4678 53.4245 41.7371 53.4059 44.3094C53.3997 44.7979 53.3379 45.2864 53.2884 45.7687C53.2699 45.9665 53.3379 45.9912 53.4987 45.9727C53.7213 45.948 53.9439 45.9047 54.1603 45.8429C55.6999 45.4286 57.623 43.4499 57.524 41.2857ZM47.204 27.1196C46.5176 27.6761 45.8313 28.2388 45.1388 28.7829C45.0027 28.8881 44.9842 28.9808 45.0336 29.1354C45.2872 29.9701 45.5283 30.8111 45.7756 31.652C45.8004 31.7324 45.8128 31.8128 45.8437 31.9303C45.0955 31.4665 44.3596 31.0522 43.6671 30.5761C43.2714 30.304 42.9808 30.2793 42.5727 30.5699C41.8863 31.0584 41.1443 31.4665 40.3837 31.9365C40.5383 31.3923 40.6867 30.8915 40.8289 30.3906C40.9526 29.9578 41.0763 29.5311 41.2123 29.1045C41.2556 28.9746 41.2247 28.8942 41.1134 28.8139C40.4147 28.2635 39.716 27.7009 39.0234 27.1444C38.9616 27.0949 38.9059 27.0454 38.8132 26.965C39.011 26.965 39.1594 26.965 39.314 26.965C40.124 26.965 40.9279 26.9588 41.7379 26.9712C41.9049 26.9712 41.9729 26.9156 42.0347 26.761C42.3872 25.8706 42.7458 24.9802 43.1168 24.0588C43.4631 24.9122 43.7908 25.7284 44.1247 26.5507C44.2916 26.965 44.2855 26.965 44.7183 26.965C45.5963 26.965 46.4744 26.965 47.3648 26.965C47.34 27.0578 47.2597 27.0763 47.204 27.1196Z" fill="#573821"></path> </svg> 