<?xml version="1.0" encoding="UTF-8"?> <svg xmlns="http://www.w3.org/2000/svg" width="307" height="93" viewBox="0 0 307 93" fill="none"> <path d="M0.06528 36V1.392H9.65664L23.4998 23.9861H18.457L31.9046 1.392H41.496L41.5949 36H30.9653L30.8664 17.4106H32.5474L23.3515 32.8853H18.2098L8.6184 17.4106H10.6949V36H0.06528ZM58.3496 14.2464H73.7749V22.6512H58.3496V14.2464ZM59.1407 27.1997H76.4447V36H47.6706V1.392H75.802V10.1923H59.1407V27.1997ZM103.624 1.392H115.291V36H103.624V1.392ZM92.8456 36H81.1778V1.392H92.8456V36ZM104.415 23.2445H92.0546V13.6531H104.415V23.2445ZM121.444 36V1.392H132.914V13.6531H141.863V23.2445H132.914V36H121.444ZM154.124 36.791C151.356 36.791 148.801 36.3461 146.461 35.4562C144.154 34.5662 142.127 33.3138 140.38 31.6987C138.666 30.0507 137.331 28.1226 136.375 25.9142C135.452 23.7059 134.991 21.2998 134.991 18.696C134.991 16.0592 135.452 13.6531 136.375 11.4778C137.331 9.26944 138.666 7.35776 140.38 5.74272C142.127 4.09472 144.154 2.82576 146.461 1.93584C148.801 1.04592 151.356 0.60096 154.124 0.60096C156.893 0.60096 159.431 1.04592 161.738 1.93584C164.078 2.82576 166.105 4.09472 167.819 5.74272C169.533 7.35776 170.851 9.26944 171.774 11.4778C172.73 13.6531 173.208 16.0592 173.208 18.696C173.208 21.2998 172.73 23.7059 171.774 25.9142C170.851 28.1226 169.533 30.0507 167.819 31.6987C166.105 33.3138 164.078 34.5662 161.738 35.4562C159.431 36.3461 156.893 36.791 154.124 36.791ZM154.124 27.348C155.146 27.348 156.085 27.1502 156.942 26.7547C157.832 26.3592 158.607 25.7989 159.266 25.0738C159.958 24.3157 160.485 23.4093 160.848 22.3546C161.244 21.2669 161.441 20.0474 161.441 18.696C161.441 17.3446 161.244 16.1416 160.848 15.0869C160.485 13.9992 159.958 13.0928 159.266 12.3677C158.607 11.6096 157.832 11.0328 156.942 10.6373C156.085 10.2418 155.146 10.044 154.124 10.044C153.102 10.044 152.147 10.2418 151.257 10.6373C150.367 11.0328 149.576 11.6096 148.884 12.3677C148.224 13.0928 147.697 13.9992 147.301 15.0869C146.939 16.1416 146.758 17.3446 146.758 18.696C146.758 20.0474 146.939 21.2669 147.301 22.3546C147.697 23.4093 148.224 24.3157 148.884 25.0738C149.576 25.7989 150.367 26.3592 151.257 26.7547C152.147 27.1502 153.102 27.348 154.124 27.348ZM22.511 57.392H34.1789V92H22.511V57.392ZM11.7331 92H0.06528V57.392H11.7331V92ZM23.3021 79.2445H10.9421V69.6531H23.3021V79.2445ZM37.4149 92L52.5435 57.392H64.0136L79.1422 92H67.0789L55.9054 62.9293H60.4539L49.2805 92H37.4149ZM46.413 85.9683L49.3794 77.5635H65.299L68.2654 85.9683H46.413ZM82.3365 92V57.392H115.807V92H104.337V63.9675L106.859 66.4395H91.2852L93.8066 63.9675V92H82.3365ZM121.927 92V57.392H133.397V75.3882L145.312 57.392H156.288V92H144.818V74.0533L132.952 92H121.927ZM170.296 92V63.9181L172.818 66.4395H160.161V57.392H191.901V66.4395H179.245L181.766 63.9181V92H170.296ZM217.008 92L208.406 75.7837L217.701 70.3453L230.159 92H217.008ZM195.453 92V57.392H207.12V92H195.453ZM203.758 79.4917V70.2958H216.86V79.4917H203.758ZM218.838 75.932L208.109 74.8443L218.047 57.392H230.209L218.838 75.932ZM249.899 92.791C247.097 92.791 244.493 92.3461 242.087 91.4562C239.714 90.5662 237.654 89.3138 235.907 87.6987C234.16 86.0507 232.792 84.1226 231.804 81.9142C230.848 79.7059 230.37 77.2998 230.37 74.696C230.37 72.0592 230.848 69.6531 231.804 67.4778C232.792 65.2694 234.16 63.3578 235.907 61.7427C237.654 60.0947 239.714 58.8258 242.087 57.9358C244.493 57.0459 247.097 56.601 249.899 56.601C252.733 56.601 255.337 57.0459 257.71 57.9358C260.083 58.8258 262.143 60.0947 263.89 61.7427C265.637 63.3578 266.988 65.2694 267.944 67.4778C268.933 69.6531 269.428 72.0592 269.428 74.696C269.428 77.2998 268.933 79.7059 267.944 81.9142C266.988 84.1226 265.637 86.0507 263.89 87.6987C262.143 89.3138 260.083 90.5662 257.71 91.4562C255.337 92.3461 252.733 92.791 249.899 92.791ZM249.899 83.348C250.986 83.348 251.992 83.1502 252.915 82.7547C253.87 82.3592 254.694 81.7989 255.387 81.0738C256.112 80.3157 256.672 79.4093 257.068 78.3546C257.463 77.2669 257.661 76.0474 257.661 74.696C257.661 73.3446 257.463 72.1416 257.068 71.0869C256.672 69.9992 256.112 69.0928 255.387 68.3677C254.694 67.6096 253.87 67.0328 252.915 66.6373C251.992 66.2418 250.986 66.044 249.899 66.044C248.811 66.044 247.789 66.2418 246.833 66.6373C245.911 67.0328 245.087 67.6096 244.361 68.3677C243.669 69.0928 243.125 69.9992 242.73 71.0869C242.334 72.1416 242.137 73.3446 242.137 74.696C242.137 76.0474 242.334 77.2669 242.73 78.3546C243.125 79.4093 243.669 80.3157 244.361 81.0738C245.087 81.7989 245.911 82.3592 246.833 82.7547C247.789 83.1502 248.811 83.348 249.899 83.348ZM273.627 92V57.392H291.178C295.463 57.392 298.775 58.183 301.115 59.7651C303.489 61.3472 304.675 63.572 304.675 66.4395C304.675 69.2411 303.587 71.4659 301.412 73.1139C299.237 74.729 296.303 75.5365 292.612 75.5365L293.601 72.8667C297.523 72.8667 300.605 73.6413 302.846 75.1904C305.087 76.7395 306.208 78.9973 306.208 81.9637C306.208 85.029 304.988 87.468 302.549 89.2808C300.11 91.0936 296.633 92 292.117 92H273.627ZM285.097 83.8424H291.574C292.529 83.8424 293.238 83.6117 293.699 83.1502C294.194 82.6558 294.441 81.9637 294.441 81.0738C294.441 80.1838 294.194 79.5246 293.699 79.0962C293.238 78.6347 292.529 78.404 291.574 78.404H285.097V83.8424ZM285.097 70.6914H290.041C291.03 70.6914 291.755 70.4771 292.216 70.0486C292.678 69.6202 292.908 68.9939 292.908 68.1699C292.908 67.313 292.678 66.6702 292.216 66.2418C291.755 65.7803 291.03 65.5496 290.041 65.5496H285.097V70.6914Z" fill="#573821"></path> </svg> 