<?xml version="1.0" encoding="UTF-8"?> <svg xmlns="http://www.w3.org/2000/svg" width="171" height="15" viewBox="0 0 171 15" fill="none"> <path d="M5.96135 11.3563C6.48189 11.3563 6.89501 11.2944 7.20898 11.1746C7.52295 11.0506 7.67994 10.84 7.67994 10.5342C7.67994 10.1996 7.44446 9.9476 6.96937 9.77822C6.49428 9.60884 5.84155 9.40228 4.99878 9.15854C4.46585 9.00568 3.92053 8.82393 3.36281 8.6091C2.8051 8.39428 2.29283 8.11748 1.83013 7.77459C1.3633 7.4317 0.983232 7.00617 0.685784 6.50217C0.388336 5.99816 0.239612 5.37848 0.239612 4.64725C0.239612 3.94494 0.363548 3.31288 0.60729 2.7469C0.851032 2.18092 1.21871 1.69756 1.7062 1.2927C2.19368 0.887842 2.8051 0.573874 3.53632 0.354919C4.26755 0.131833 5.12272 0.0244141 6.10182 0.0244141C7.38249 0.0244141 8.49379 0.148357 9.43158 0.392099C10.3694 0.635841 11.1832 0.93329 11.869 1.28444L11.1584 4.9695C10.3487 4.5729 9.49355 4.25478 8.59294 4.0193C7.69233 3.78382 6.86609 3.66402 6.11834 3.66402C5.6763 3.66402 5.33754 3.71773 5.09793 3.82514C4.86245 3.93255 4.74264 4.13085 4.74264 4.42004C4.74264 4.58942 4.82113 4.73815 4.98225 4.86622C5.14337 4.99429 5.35406 5.10994 5.6102 5.20909C5.87047 5.30824 6.16791 5.4074 6.50254 5.50655C6.83717 5.6057 7.18006 5.70072 7.53122 5.79161C8.09719 5.96099 8.65491 6.15103 9.21262 6.36172C9.77034 6.57654 10.2661 6.8492 10.6999 7.18796C11.1336 7.52259 11.4889 7.93157 11.7657 8.41492C12.0425 8.89414 12.1788 9.48077 12.1788 10.1666C12.1788 10.8854 12.0466 11.5423 11.7781 12.1372C11.5096 12.7321 11.113 13.2402 10.5883 13.6616C10.0637 14.083 9.40679 14.4093 8.61773 14.6448C7.8328 14.8803 6.91979 15.0001 5.88286 15.0001C4.69307 15.0001 3.57764 14.8762 2.5407 14.6242C1.50376 14.3722 0.656864 14.0706 0 13.7194L0.685784 10.0344C1.46245 10.4144 2.30935 10.7326 3.21409 10.9846C4.13535 11.2283 5.04422 11.3563 5.96135 11.3563Z" fill="#F8F5F3"></path> <path d="M23.2703 4.02806L23.2703 14.6494L18.759 14.6494L18.759 4.02806L14.4336 4.02806L14.4336 0.343018L27.5998 0.343018L27.5998 4.02806L23.2703 4.02806Z" fill="#F8F5F3"></path> <path d="M43.3285 14.6536L38.8626 14.6536L37.9703 11.9765L33.1161 11.9765L32.2692 14.6536L27.8281 14.6536L32.7525 0.343018L38.4991 0.343018L43.3285 14.6536ZM35.5907 3.57364L33.9878 8.58892L37.1027 8.58892L35.5907 3.57364Z" fill="#F8F5F3"></path> <path d="M50.5621 14.6536L46.0508 14.6536L46.0508 0.343018L52.5285 0.343018C54.528 0.343018 56.0442 0.768528 57.0729 1.61543C58.1015 2.46233 58.618 3.60255 58.618 5.04021C58.618 5.95734 58.3907 6.77534 57.9446 7.50243C57.4943 8.22952 56.7878 8.78309 55.8253 9.16316L59.374 14.6577L54.3835 14.6577L51.818 10.3075L50.5579 10.4232L50.5579 14.6536H50.5621ZM52.0287 7.18845C52.7144 7.11409 53.2061 6.93232 53.5035 6.6514C53.8009 6.37048 53.9497 5.9367 53.9497 5.35833C53.9497 4.8254 53.7803 4.4288 53.4457 4.16853C53.111 3.90826 52.5285 3.7802 51.7064 3.7802L50.4712 3.7802L50.4712 7.21324L52.0287 7.18845Z" fill="#F8F5F3"></path> <path d="M67.7309 11.3563C68.2514 11.3563 68.6645 11.2944 68.9785 11.1746C69.2925 11.0506 69.4495 10.84 69.4495 10.5342C69.4495 10.1996 69.214 9.9476 68.7389 9.77822C68.2638 9.60884 67.6111 9.40228 66.7683 9.15854C66.2354 9.00568 65.6901 8.82393 65.1323 8.6091C64.5746 8.39428 64.0624 8.11748 63.5997 7.77459C63.1328 7.4317 62.7528 7.00617 62.4553 6.50217C62.1579 5.99816 62.0091 5.37848 62.0091 4.64725C62.0091 3.94494 62.1331 3.31288 62.3768 2.7469C62.6206 2.18092 62.9882 1.69756 63.4757 1.2927C63.9632 0.887842 64.5746 0.573874 65.3059 0.354919C66.0371 0.131833 66.8922 0.0244141 67.8713 0.0244141C69.152 0.0244141 70.2633 0.148357 71.2011 0.392099C72.1389 0.635841 72.9527 0.93329 73.6385 1.28444L72.928 4.9695C72.1182 4.5729 71.2631 4.25478 70.3625 4.0193C69.4619 3.78382 68.6356 3.66402 67.8879 3.66402C67.4458 3.66402 67.1071 3.71773 66.8675 3.82514C66.632 3.93255 66.5122 4.13085 66.5122 4.42004C66.5122 4.58942 66.5907 4.73815 66.7518 4.86622C66.9129 4.99429 67.1236 5.10994 67.3797 5.20909C67.64 5.30824 67.9374 5.4074 68.2721 5.50655C68.6067 5.6057 68.9496 5.70072 69.3007 5.79161C69.8667 5.96099 70.4244 6.15103 70.9822 6.36172C71.5399 6.57654 72.0356 6.8492 72.4694 7.18796C72.9032 7.52259 73.2585 7.93157 73.5352 8.41492C73.812 8.89414 73.9484 9.48077 73.9484 10.1666C73.9484 10.8854 73.8162 11.5423 73.5476 12.1372C73.2791 12.7321 72.8825 13.2402 72.3578 13.6616C71.8332 14.083 71.1763 14.4093 70.3873 14.6448C69.6023 14.8803 68.6893 15.0001 67.6524 15.0001C66.4626 15.0001 65.3472 14.8762 64.3102 14.6242C63.2733 14.3722 62.4264 14.0706 61.7695 13.7194L62.4553 10.0344C63.232 10.4144 64.0789 10.7326 64.9836 10.9846C65.9049 11.2283 66.8179 11.3563 67.7309 11.3563Z" fill="#F8F5F3"></path> <path d="M93.993 4.73852C93.5056 4.44934 92.9561 4.21386 92.3447 4.04035C91.7333 3.86684 91.1384 3.77594 90.56 3.77594C89.4611 3.77594 88.5977 4.10231 87.9739 4.75917C87.3459 5.41604 87.0361 6.31664 87.0361 7.46098C87.0361 8.62186 87.3335 9.539 87.9284 10.2083C88.5233 10.8816 89.3991 11.2163 90.56 11.2163C91.2293 11.2163 91.8655 11.1254 92.4604 10.9395C93.0553 10.7577 93.6336 10.4974 94.1996 10.1628L95.1828 14.0338C94.906 14.1701 94.5797 14.3023 94.1996 14.4221C93.8195 14.546 93.4105 14.6493 92.9768 14.7319C92.543 14.8146 92.101 14.8807 91.6507 14.9261C91.2003 14.9715 90.7624 14.9963 90.3328 14.9963C89.143 14.9963 88.0606 14.8394 87.0939 14.5254C86.1231 14.2114 85.301 13.7487 84.6193 13.129C83.9418 12.5093 83.4171 11.7368 83.0494 10.8073C82.6818 9.87776 82.5 8.79123 82.5 7.55599C82.5 6.39512 82.6818 5.34994 83.0494 4.42041C83.4171 3.49089 83.9418 2.69769 84.6276 2.04082C85.3134 1.38396 86.152 0.87995 87.1476 0.528796C88.1391 0.177642 89.2628 0 90.5146 0C91.4317 0 92.291 0.0908924 93.1007 0.276797C93.9104 0.458571 94.6582 0.70644 95.344 1.00802L93.993 4.73852Z" fill="#F8F5F3"></path> <path d="M112.791 7.43986C112.791 8.61313 112.593 9.6666 112.196 10.6003C111.8 11.5298 111.254 12.323 110.56 12.9716C109.866 13.6202 109.048 14.1201 108.111 14.4712C107.173 14.8224 106.169 14.9959 105.099 14.9959C104.029 14.9959 103.029 14.8389 102.1 14.5249C101.17 14.2109 100.36 13.7482 99.6705 13.1286C98.9847 12.5089 98.4476 11.7363 98.0552 10.8068C97.6668 9.87729 97.4727 8.7825 97.4727 7.53487C97.4727 6.374 97.671 5.32881 98.0676 4.39929C98.4642 3.46976 99.0095 2.67656 99.7035 2.0197C100.398 1.36284 101.216 0.862956 102.153 0.520065C103.091 0.177173 104.095 0.00366211 105.165 0.00366211C106.235 0.00366211 107.235 0.156511 108.164 0.462222C109.094 0.767932 109.904 1.23063 110.593 1.84618C111.279 2.46587 111.816 3.23842 112.209 4.16794C112.597 5.09747 112.791 6.1881 112.791 7.43986ZM108.259 7.53074C108.259 6.35747 107.991 5.39904 107.458 4.65542C106.925 3.91593 106.136 3.54412 105.099 3.54412C104.045 3.54412 103.269 3.90767 102.765 4.63063C102.261 5.3536 102.009 6.29138 102.009 7.43572C102.009 8.03062 102.079 8.57181 102.215 9.05929C102.352 9.54678 102.55 9.96816 102.81 10.3193C103.07 10.6705 103.397 10.9473 103.793 11.1456C104.19 11.3439 104.649 11.443 105.169 11.443C106.206 11.443 106.983 11.0753 107.491 10.3441C108.003 9.617 108.259 8.67508 108.259 7.53074Z" fill="#F8F5F3"></path> <path d="M116.293 0.343018L127.237 0.343018L127.237 3.96197L120.734 3.96197V6.02345L125.815 6.02345L125.815 9.59694L120.734 9.59694L120.734 14.6577L116.293 14.6577L116.293 0.343018Z" fill="#F8F5F3"></path> <path d="M130.58 0.343018L141.524 0.343018V3.96197L135.021 3.96197L135.021 6.02345L140.103 6.02345V9.59694L135.021 9.59694L135.021 14.6577L130.58 14.6577L130.58 0.343018Z" fill="#F8F5F3"></path> <path d="M144.869 14.6536L144.869 0.343018L156.04 0.343018V3.84629L149.265 3.84629L149.265 5.72188L154.623 5.72188V9.22514L149.265 9.22514V11.1503L156.04 11.1503L156.04 14.6536L144.869 14.6536Z" fill="#F8F5F3"></path> <path d="M159.68 14.6536L159.68 0.343018L170.851 0.343018V3.84629L164.075 3.84629L164.075 5.72188L169.434 5.72188V9.22514L164.075 9.22514V11.1503L170.851 11.1503L170.851 14.6536L159.68 14.6536Z" fill="#F8F5F3"></path> </svg> 