<?xml version="1.0" encoding="UTF-8"?> <svg xmlns="http://www.w3.org/2000/svg" width="429" height="112" viewBox="0 0 429 112" fill="none"> <path d="M3.06528 46V11.392H36.5362V46H25.0661V17.9675L27.5875 20.4395H12.0139L14.5354 17.9675V46H3.06528ZM45.4245 36.9525C47.4681 37.4798 49.0666 37.6611 50.2202 37.4963C51.3738 37.2986 52.3956 36.5899 53.2855 35.3704L54.9665 32.9973L55.9553 31.9096L65.9916 11.392H77.2639L63.3713 37.4469C61.8551 40.2814 60.0258 42.4898 57.8834 44.0718C55.774 45.621 53.4338 46.5109 50.8629 46.7416C48.2921 46.9723 45.5729 46.5109 42.7053 45.3573L45.4245 36.9525ZM55.8069 41.056L39.6895 11.392H52.0001L62.1353 32.9973L55.8069 41.056ZM87.3072 46V17.9181L89.8286 20.4395H77.172V11.392H108.912V20.4395H96.2558L98.7773 17.9181V46H87.3072ZM123.439 24.2464H138.865V32.6512H123.439V24.2464ZM124.23 37.1997H141.534V46H112.76V11.392H140.892V20.1923H124.23V37.1997ZM167.23 36.9525L164.709 39.4739V11.392H176.179V39.4739L173.608 36.9525H185.671L183.1 39.4739V11.392H194.57V46H146.267V11.392H157.738V39.4739L155.216 36.9525H167.23ZM211.359 24.2464H226.785V32.6512H211.359V24.2464ZM212.151 37.1997H229.455V46H200.68V11.392H228.812V20.1923H212.151V37.1997ZM251.591 46.791C248.822 46.791 246.251 46.3626 243.878 45.5056C241.538 44.6157 239.494 43.3632 237.747 41.7482C236.033 40.1331 234.699 38.2214 233.743 36.0131C232.787 33.8048 232.309 31.3658 232.309 28.696C232.309 26.0262 232.787 23.5872 233.743 21.3789C234.699 19.1706 236.033 17.2589 237.747 15.6438C239.494 14.0288 241.538 12.7928 243.878 11.9358C246.251 11.0459 248.822 10.601 251.591 10.601C254.985 10.601 257.985 11.1942 260.589 12.3808C263.225 13.5674 265.401 15.2813 267.115 17.5226L259.748 24.0981C258.726 22.8126 257.589 21.8238 256.337 21.1317C255.117 20.4066 253.733 20.044 252.184 20.044C250.964 20.044 249.86 20.2418 248.871 20.6373C247.883 21.0328 247.026 21.6096 246.3 22.3677C245.608 23.1258 245.064 24.0486 244.669 25.1363C244.273 26.191 244.076 27.3776 244.076 28.696C244.076 30.0144 244.273 31.2174 244.669 32.3051C245.064 33.3598 245.608 34.2662 246.3 35.0243C247.026 35.7824 247.883 36.3592 248.871 36.7547C249.86 37.1502 250.964 37.348 252.184 37.348C253.733 37.348 255.117 37.0019 256.337 36.3098C257.589 35.5846 258.726 34.5794 259.748 33.2939L267.115 39.8694C265.401 42.0778 263.225 43.7917 260.589 45.0112C257.985 46.1978 254.985 46.791 251.591 46.791ZM278.26 46V17.9181L280.781 20.4395H268.124V11.392H299.865V20.4395H287.208L289.73 17.9181V46H278.26ZM303.713 46V11.392H321.264C325.549 11.392 328.861 12.183 331.201 13.7651C333.574 15.3472 334.761 17.572 334.761 20.4395C334.761 23.2411 333.673 25.4659 331.498 27.1139C329.323 28.729 326.389 29.5365 322.698 29.5365L323.686 26.8667C327.609 26.8667 330.69 27.6413 332.932 29.1904C335.173 30.7395 336.294 32.9973 336.294 35.9637C336.294 39.029 335.074 41.468 332.635 43.2808C330.196 45.0936 326.719 46 322.203 46H303.713ZM315.183 37.8424H321.659C322.615 37.8424 323.324 37.6117 323.785 37.1502C324.28 36.6558 324.527 35.9637 324.527 35.0738C324.527 34.1838 324.28 33.5246 323.785 33.0962C323.324 32.6347 322.615 32.404 321.659 32.404H315.183V37.8424ZM315.183 24.6914H320.127C321.115 24.6914 321.841 24.4771 322.302 24.0486C322.763 23.6202 322.994 22.9939 322.994 22.1699C322.994 21.313 322.763 20.6702 322.302 20.2418C321.841 19.7803 321.115 19.5496 320.127 19.5496H315.183V24.6914ZM340.455 46V11.392H351.925V29.3882L363.84 11.392H374.815V46H363.345V28.0533L351.48 46H340.455ZM391.642 24.2464H407.067V32.6512H391.642V24.2464ZM392.433 37.1997H409.737V46H380.963V11.392H409.094V20.1923H392.433V37.1997ZM3.06528 102V67.392H20.6165C24.9013 67.392 28.2138 68.183 30.5539 69.7651C32.927 71.3472 34.1136 73.572 34.1136 76.4395C34.1136 79.2411 33.0259 81.4659 30.8506 83.1139C28.6752 84.729 25.7418 85.5365 22.0502 85.5365L23.039 82.8667C26.9613 82.8667 30.043 83.6413 32.2843 85.1904C34.5256 86.7395 35.6462 88.9973 35.6462 91.9637C35.6462 95.029 34.4267 97.468 31.9877 99.2808C29.5486 101.094 26.0714 102 21.5558 102H3.06528ZM14.5354 93.8424H21.012C21.9678 93.8424 22.6765 93.6117 23.1379 93.1502C23.6323 92.6558 23.8795 91.9637 23.8795 91.0738C23.8795 90.1838 23.6323 89.5246 23.1379 89.0962C22.6765 88.6347 21.9678 88.404 21.012 88.404H14.5354V93.8424ZM14.5354 80.6914H19.4794C20.4682 80.6914 21.1933 80.4771 21.6547 80.0486C22.1162 79.6202 22.3469 78.9939 22.3469 78.1699C22.3469 77.313 22.1162 76.6702 21.6547 76.2418C21.1933 75.7803 20.4682 75.5496 19.4794 75.5496H14.5354V80.6914ZM54.6297 102V67.392H64.221L78.0642 89.9861H73.0213L86.469 67.392H96.0604L96.1593 102H85.5297L85.4308 83.4106H87.1117L77.9159 98.8853H72.7741L63.1828 83.4106H65.2593V102H54.6297ZM102.235 102V67.392H113.705V85.3882L125.62 67.392H136.596V102H125.126V84.0533L113.26 102H102.235ZM142.743 102V67.392H159.404C162.634 67.392 165.419 67.9194 167.76 68.9741C170.133 70.0288 171.962 71.545 173.247 73.5226C174.533 75.4672 175.176 77.7744 175.176 80.4442C175.176 83.1139 174.533 85.4211 173.247 87.3658C171.962 89.3104 170.133 90.8266 167.76 91.9142C165.419 92.969 162.634 93.4963 159.404 93.4963H149.22L154.411 88.5029V102H142.743ZM154.411 89.7883L149.22 84.4982H158.663C160.278 84.4982 161.464 84.1357 162.222 83.4106C163.013 82.6854 163.409 81.6966 163.409 80.4442C163.409 79.1917 163.013 78.2029 162.222 77.4778C161.464 76.7526 160.278 76.3901 158.663 76.3901H149.22L154.411 71.1V89.7883ZM215.277 102L206.674 85.7837L215.969 80.3453L228.428 102H215.277ZM193.721 102V67.392H205.389V102H193.721ZM202.027 89.4917V80.2958H215.129V89.4917H202.027ZM217.106 85.932L206.378 84.8443L216.315 67.392H228.477L217.106 85.932ZM248.167 102.791C245.366 102.791 242.762 102.346 240.356 101.456C237.983 100.566 235.923 99.3138 234.176 97.6987C232.429 96.0507 231.061 94.1226 230.072 91.9142C229.116 89.7059 228.638 87.2998 228.638 84.696C228.638 82.0592 229.116 79.6531 230.072 77.4778C231.061 75.2694 232.429 73.3578 234.176 71.7427C235.923 70.0947 237.983 68.8258 240.356 67.9358C242.762 67.0459 245.366 66.601 248.167 66.601C251.002 66.601 253.606 67.0459 255.979 67.9358C258.352 68.8258 260.412 70.0947 262.159 71.7427C263.906 73.3578 265.257 75.2694 266.213 77.4778C267.202 79.6531 267.696 82.0592 267.696 84.696C267.696 87.2998 267.202 89.7059 266.213 91.9142C265.257 94.1226 263.906 96.0507 262.159 97.6987C260.412 99.3138 258.352 100.566 255.979 101.456C253.606 102.346 251.002 102.791 248.167 102.791ZM248.167 93.348C249.255 93.348 250.26 93.1502 251.183 92.7547C252.139 92.3592 252.963 91.7989 253.655 91.0738C254.38 90.3157 254.94 89.4093 255.336 88.3546C255.731 87.2669 255.929 86.0474 255.929 84.696C255.929 83.3446 255.731 82.1416 255.336 81.0869C254.94 79.9992 254.38 79.0928 253.655 78.3677C252.963 77.6096 252.139 77.0328 251.183 76.6373C250.26 76.2418 249.255 76.044 248.167 76.044C247.079 76.044 246.058 76.2418 245.102 76.6373C244.179 77.0328 243.355 77.6096 242.63 78.3677C241.938 79.0928 241.394 79.9992 240.998 81.0869C240.603 82.1416 240.405 83.3446 240.405 84.696C240.405 86.0474 240.603 87.2669 240.998 88.3546C241.394 89.4093 241.938 90.3157 242.63 91.0738C243.355 91.7989 244.179 92.3592 245.102 92.7547C246.058 93.1502 247.079 93.348 248.167 93.348ZM291.77 100.022C286.991 100.022 282.97 99.4291 279.707 98.2426C276.477 97.056 274.038 95.3091 272.39 93.0019C270.742 90.6947 269.918 87.8766 269.918 84.5477C269.918 81.2187 270.742 78.4171 272.39 76.1429C274.038 73.8357 276.493 72.0888 279.756 70.9022C283.019 69.7157 287.04 69.1224 291.82 69.1224C291.886 69.1224 292.149 69.1224 292.611 69.1224C293.072 69.1224 293.534 69.1224 293.995 69.1224C294.456 69.1224 294.704 69.1224 294.737 69.1224C299.45 69.1224 303.389 69.7322 306.553 70.9517C309.75 72.1382 312.156 73.8851 313.771 76.1923C315.386 78.4666 316.194 81.2517 316.194 84.5477C316.194 87.8107 315.402 90.5958 313.82 92.903C312.271 95.2102 309.948 96.9736 306.849 98.1931C303.751 99.4126 299.911 100.022 295.33 100.022C295.231 100.022 294.901 100.022 294.341 100.022C293.814 100.022 293.286 100.022 292.759 100.022C292.232 100.022 291.902 100.022 291.77 100.022ZM292.808 91.1232C292.907 91.1232 293.089 91.1232 293.352 91.1232C293.616 91.1232 293.797 91.1232 293.896 91.1232C296.566 91.1232 298.708 90.909 300.323 90.4805C301.938 90.019 303.108 89.3104 303.834 88.3546C304.559 87.3658 304.921 86.0803 304.921 84.4982C304.921 82.9162 304.542 81.6637 303.784 80.7408C303.026 79.785 301.839 79.0928 300.224 78.6643C298.642 78.2358 296.582 78.0216 294.044 78.0216C293.913 78.0216 293.715 78.0216 293.451 78.0216C293.187 78.0216 292.973 78.0216 292.808 78.0216C289.974 78.0216 287.7 78.2358 285.986 78.6643C284.305 79.0598 283.085 79.7355 282.327 80.6914C281.569 81.6472 281.19 82.9326 281.19 84.5477C281.19 86.1627 281.618 87.4646 282.475 88.4534C283.332 89.4093 284.618 90.1014 286.332 90.5299C288.079 90.9254 290.238 91.1232 292.808 91.1232ZM287.716 103.78V65.6616H298.395V103.78H287.716ZM331.049 80.2464H346.474V88.6512H331.049V80.2464ZM331.84 93.1997H349.144V102H320.37V67.392H348.501V76.1923H331.84V93.1997Z" fill="#573821"></path> </svg> 