<?xml version="1.0" encoding="UTF-8"?> <svg xmlns="http://www.w3.org/2000/svg" width="580" height="37" viewBox="0 0 580 37" fill="none"> <path d="M0.06528 36V1.392H17.6165C21.9013 1.392 25.2138 2.18304 27.5539 3.76512C29.927 5.3472 31.1136 7.572 31.1136 10.4395C31.1136 13.2411 30.0259 15.4659 27.8506 17.1139C25.6752 18.729 22.7418 19.5365 19.0502 19.5365L20.039 16.8667C23.9613 16.8667 27.043 17.6413 29.2843 19.1904C31.5256 20.7395 32.6462 22.9973 32.6462 25.9637C32.6462 29.029 31.4267 31.468 28.9877 33.2808C26.5486 35.0936 23.0714 36 18.5558 36H0.06528ZM11.5354 27.8424H18.012C18.9678 27.8424 19.6765 27.6117 20.1379 27.1502C20.6323 26.6558 20.8795 25.9637 20.8795 25.0738C20.8795 24.1838 20.6323 23.5246 20.1379 23.0962C19.6765 22.6347 18.9678 22.404 18.012 22.404H11.5354V27.8424ZM11.5354 14.6914H16.4794C17.4682 14.6914 18.1933 14.4771 18.6547 14.0486C19.1162 13.6202 19.3469 12.9939 19.3469 12.1699C19.3469 11.313 19.1162 10.6702 18.6547 10.2418C18.1933 9.78032 17.4682 9.5496 16.4794 9.5496H11.5354V14.6914ZM47.4864 14.2464H62.9116V22.6512H47.4864V14.2464ZM48.2774 27.1997H65.5814V36H36.8073V1.392H64.9387V10.1923H48.2774V27.1997ZM87.7174 36.791C84.9487 36.791 82.3779 36.3626 80.0047 35.5056C77.6646 34.6157 75.6211 33.3632 73.8742 31.7482C72.1603 30.1331 70.8254 28.2214 69.8695 26.0131C68.9137 23.8048 68.4358 21.3658 68.4358 18.696C68.4358 16.0262 68.9137 13.5872 69.8695 11.3789C70.8254 9.17056 72.1603 7.25888 73.8742 5.64384C75.6211 4.0288 77.6646 2.7928 80.0047 1.93584C82.3779 1.04592 84.9487 0.60096 87.7174 0.60096C91.1123 0.60096 94.1116 1.19424 96.7155 2.3808C99.3523 3.56736 101.528 5.28128 103.242 7.52256L95.875 14.0981C94.8532 12.8126 93.7161 11.8238 92.4636 11.1317C91.2441 10.4066 89.8598 10.044 88.3107 10.044C87.0911 10.044 85.987 10.2418 84.9982 10.6373C84.0094 11.0328 83.1524 11.6096 82.4273 12.3677C81.7351 13.1258 81.1913 14.0486 80.7958 15.1363C80.4003 16.191 80.2025 17.3776 80.2025 18.696C80.2025 20.0144 80.4003 21.2174 80.7958 22.3051C81.1913 23.3598 81.7351 24.2662 82.4273 25.0243C83.1524 25.7824 84.0094 26.3592 84.9982 26.7547C85.987 27.1502 87.0911 27.348 88.3107 27.348C89.8598 27.348 91.2441 27.0019 92.4636 26.3098C93.7161 25.5846 94.8532 24.5794 95.875 23.2939L103.242 29.8694C101.528 32.0778 99.3523 33.7917 96.7155 35.0112C94.1116 36.1978 91.1123 36.791 87.7174 36.791ZM117.446 14.2464H132.871V22.6512H117.446V14.2464ZM118.237 27.1997H135.541V36H106.767V1.392H134.898V10.1923H118.237V27.1997ZM162.72 1.392H174.388V36H162.72V1.392ZM151.942 36H140.274V1.392H151.942V36ZM163.511 23.2445H151.151V13.6531H163.511V23.2445ZM202.986 1.392H214.654V36H202.986V1.392ZM192.208 36H180.541V1.392H192.208V36ZM203.777 23.2445H191.417V13.6531H203.777V23.2445ZM220.807 36V1.392H232.277V19.3882L244.192 1.392H255.168V36H243.698V18.0533L231.832 36H220.807ZM271.994 14.2464H287.419V22.6512H271.994V14.2464ZM272.785 27.1997H290.089V36H261.315V1.392H289.446V10.1923H272.785V27.1997ZM332.09 1.392H343.758V36H332.09V1.392ZM321.312 36H309.645V1.392H321.312V36ZM332.881 23.2445H320.521V13.6531H332.881V23.2445ZM367.512 36.791C364.71 36.791 362.106 36.3461 359.7 35.4562C357.327 34.5662 355.267 33.3138 353.52 31.6987C351.773 30.0507 350.406 28.1226 349.417 25.9142C348.461 23.7059 347.983 21.2998 347.983 18.696C347.983 16.0592 348.461 13.6531 349.417 11.4778C350.406 9.26944 351.773 7.35776 353.52 5.74272C355.267 4.09472 357.327 2.82576 359.7 1.93584C362.106 1.04592 364.71 0.60096 367.512 0.60096C370.346 0.60096 372.95 1.04592 375.323 1.93584C377.696 2.82576 379.756 4.09472 381.503 5.74272C383.25 7.35776 384.602 9.26944 385.557 11.4778C386.546 13.6531 387.041 16.0592 387.041 18.696C387.041 21.2998 386.546 23.7059 385.557 25.9142C384.602 28.1226 383.25 30.0507 381.503 31.6987C379.756 33.3138 377.696 34.5662 375.323 35.4562C372.95 36.3461 370.346 36.791 367.512 36.791ZM367.512 27.348C368.6 27.348 369.605 27.1502 370.528 26.7547C371.484 26.3592 372.308 25.7989 373 25.0738C373.725 24.3157 374.285 23.4093 374.681 22.3546C375.076 21.2669 375.274 20.0474 375.274 18.696C375.274 17.3446 375.076 16.1416 374.681 15.0869C374.285 13.9992 373.725 13.0928 373 12.3677C372.308 11.6096 371.484 11.0328 370.528 10.6373C369.605 10.2418 368.6 10.044 367.512 10.044C366.424 10.044 365.402 10.2418 364.447 10.6373C363.524 11.0328 362.7 11.6096 361.975 12.3677C361.282 13.0928 360.739 13.9992 360.343 15.0869C359.948 16.1416 359.75 17.3446 359.75 18.696C359.75 20.0474 359.948 21.2669 360.343 22.3546C360.739 23.4093 361.282 24.3157 361.975 25.0738C362.7 25.7989 363.524 26.3592 364.447 26.7547C365.402 27.1502 366.424 27.348 367.512 27.348ZM391.24 36V1.392H408.791C413.076 1.392 416.388 2.18304 418.729 3.76512C421.102 5.3472 422.288 7.572 422.288 10.4395C422.288 13.2411 421.201 15.4659 419.025 17.1139C416.85 18.729 413.916 19.5365 410.225 19.5365L411.214 16.8667C415.136 16.8667 418.218 17.6413 420.459 19.1904C422.7 20.7395 423.821 22.9973 423.821 25.9637C423.821 29.029 422.601 31.468 420.162 33.2808C417.723 35.0936 414.246 36 409.731 36H391.24ZM402.71 27.8424H409.187C410.143 27.8424 410.851 27.6117 411.313 27.1502C411.807 26.6558 412.054 25.9637 412.054 25.0738C412.054 24.1838 411.807 23.5246 411.313 23.0962C410.851 22.6347 410.143 22.404 409.187 22.404H402.71V27.8424ZM402.71 14.6914H407.654C408.643 14.6914 409.368 14.4771 409.829 14.0486C410.291 13.6202 410.522 12.9939 410.522 12.1699C410.522 11.313 410.291 10.6702 409.829 10.2418C409.368 9.78032 408.643 9.5496 407.654 9.5496H402.71V14.6914ZM427.982 36V1.392H439.452V19.3882L451.367 1.392H462.343V36H450.873V18.0533L439.007 36H427.982ZM490.936 1.392H502.604V36H490.936V1.392ZM480.158 36H468.49V1.392H480.158V36ZM491.727 23.2445H479.367V13.6531H491.727V23.2445ZM530.016 36L521.413 19.7837L530.708 14.3453L543.167 36H530.016ZM508.46 36V1.392H520.128V36H508.46ZM516.766 23.4917V14.2958H529.867V23.4917H516.766ZM531.845 19.932L521.117 18.8443L531.054 1.392H543.216L531.845 19.932ZM545.547 36V1.392H557.017V19.3882L568.932 1.392H579.908V36H568.438V18.0533L556.572 36H545.547Z" fill="#8686CD"></path> </svg> 