<?xml version="1.0" encoding="UTF-8"?> <svg xmlns="http://www.w3.org/2000/svg" width="1559" height="1420" viewBox="0 0 1559 1420" fill="none"> <path d="M780.678 390.925C851.486 625.19 347.42 524.713 159.925 828.254L242.404 828.254L717.616 765.351L992.581 828.254L1276.27 765.351L1316.79 693.004L1316.79 498.441L1316.79 234.119C1316.79 234.119 684.293 72.0389 780.678 390.925Z" fill="url(#paint0_linear_651_1562)"></path> <g filter="url(#filter0_d_651_1562)"> <path d="M230.424 622.907C82.724 625.184 26.7101 699.691 40.924 792.907C55.138 886.123 325.132 887.448 382.238 865.574C542.089 804.343 551.154 773.626 702.334 799.576C884.21 830.796 989.925 904.627 1252.59 783.146C1371.92 727.951 1525.64 761.06 1519.73 672.476C1513.82 583.893 1422.71 503.571 1193.51 524.694C1048.39 538.068 969.634 608.553 811.484 648.836C641.673 692.09 378.71 620.621 230.424 622.907Z" fill="url(#paint1_linear_651_1562)"></path> </g> <defs> <filter id="filter0_d_651_1562" x="18.7891" y="511.282" width="1521.11" height="395.914" filterUnits="userSpaceOnUse" color-interpolation-filters="sRGB"> <feFlood flood-opacity="0" result="BackgroundImageFix"></feFlood> <feColorMatrix in="SourceAlpha" type="matrix" values="0 0 0 0 0 0 0 0 0 0 0 0 0 0 0 0 0 0 127 0" result="hardAlpha"></feColorMatrix> <feOffset dy="10"></feOffset> <feGaussianBlur stdDeviation="10"></feGaussianBlur> <feComposite in2="hardAlpha" operator="out"></feComposite> <feColorMatrix type="matrix" values="0 0 0 0 0.466667 0 0 0 0 0.187911 0 0 0 0 0.0311111 0 0 0 0.25 0"></feColorMatrix> <feBlend mode="normal" in2="BackgroundImageFix" result="effect1_dropShadow_651_1562"></feBlend> <feBlend mode="normal" in="SourceGraphic" in2="effect1_dropShadow_651_1562" result="shape"></feBlend> </filter> <linearGradient id="paint0_linear_651_1562" x1="430.143" y1="604.315" x2="1678.35" y2="599.999" gradientUnits="userSpaceOnUse"> <stop stop-color="#573821"></stop> <stop offset="1" stop-color="#3A2210"></stop> </linearGradient> <linearGradient id="paint1_linear_651_1562" x1="1353" y1="1165.85" x2="151.588" y2="603.737" gradientUnits="userSpaceOnUse"> <stop stop-color="#42D5C0"></stop> <stop offset="0.508954" stop-color="#1C9583"></stop> <stop offset="1" stop-color="#32E8CE"></stop> </linearGradient> </defs> </svg> 