<?xml version="1.0" encoding="UTF-8"?> <svg xmlns="http://www.w3.org/2000/svg" width="607" height="498" viewBox="0 0 607 498" fill="none"> <g filter="url(#filter0_d_752_2121)"> <path d="M556.631 367.488C501.631 413.988 482.394 420.128 426.628 445.488C370.862 470.849 243.356 495.689 170.127 445.488C91.9081 391.867 15.6308 296.988 109.131 151.488C202.631 5.98837 257.456 21.389 285.027 57.5103C319.49 102.662 278.525 170.877 451.816 210.831C590.45 242.795 609 323.213 556.631 367.488Z" fill="#573821"></path> </g> <g filter="url(#filter1_d_752_2121)"> <path d="M522.631 366.488C467.631 412.988 448.394 419.128 392.628 444.488C336.862 469.849 209.356 494.689 136.127 444.488C57.9081 390.867 -18.3692 295.988 75.1307 150.488C168.631 4.98837 223.456 20.389 251.027 56.5103C285.49 101.662 244.525 169.877 417.816 209.831C556.45 241.795 575 322.213 522.631 366.488Z" fill="url(#paint0_linear_752_2121)"></path> </g> <defs> <filter id="filter0_d_752_2121" x="34.107" y="1.10705" width="572.215" height="496.226" filterUnits="userSpaceOnUse" color-interpolation-filters="sRGB"> <feFlood flood-opacity="0" result="BackgroundImageFix"></feFlood> <feColorMatrix in="SourceAlpha" type="matrix" values="0 0 0 0 0 0 0 0 0 0 0 0 0 0 0 0 0 0 127 0" result="hardAlpha"></feColorMatrix> <feOffset dx="-4.55614" dy="-4.55614"></feOffset> <feGaussianBlur stdDeviation="13.6684"></feGaussianBlur> <feComposite in2="hardAlpha" operator="out"></feComposite> <feColorMatrix type="matrix" values="0 0 0 0 0.141667 0 0 0 0 0.135847 0 0 0 0 0.124549 0 0 0 0.1 0"></feColorMatrix> <feBlend mode="normal" in2="BackgroundImageFix" result="effect1_dropShadow_752_2121"></feBlend> <feBlend mode="normal" in="SourceGraphic" in2="effect1_dropShadow_752_2121" result="shape"></feBlend> </filter> <filter id="filter1_d_752_2121" x="0.107049" y="0.107049" width="572.215" height="496.226" filterUnits="userSpaceOnUse" color-interpolation-filters="sRGB"> <feFlood flood-opacity="0" result="BackgroundImageFix"></feFlood> <feColorMatrix in="SourceAlpha" type="matrix" values="0 0 0 0 0 0 0 0 0 0 0 0 0 0 0 0 0 0 127 0" result="hardAlpha"></feColorMatrix> <feOffset dx="-4.55614" dy="-4.55614"></feOffset> <feGaussianBlur stdDeviation="13.6684"></feGaussianBlur> <feComposite in2="hardAlpha" operator="out"></feComposite> <feColorMatrix type="matrix" values="0 0 0 0 0.141667 0 0 0 0 0.135847 0 0 0 0 0.124549 0 0 0 0.1 0"></feColorMatrix> <feBlend mode="normal" in2="BackgroundImageFix" result="effect1_dropShadow_752_2121"></feBlend> <feBlend mode="normal" in="SourceGraphic" in2="effect1_dropShadow_752_2121" result="shape"></feBlend> </filter> <linearGradient id="paint0_linear_752_2121" x1="324.379" y1="-16.5771" x2="324.379" y2="367.05" gradientUnits="userSpaceOnUse"> <stop stop-color="#42D5C0"></stop> <stop offset="1" stop-color="#00937E"></stop> </linearGradient> </defs> </svg> 